<svg width="172" height="119" viewBox="0 0 172 119" fill="none" xmlns="http://www.w3.org/2000/svg">
<g filter="url(#filter0_ddd_0_4494)">
<rect x="11.5293" y="4.51953" width="148.667" height="95.6573" rx="5.97656" fill="url(#paint0_linear_0_4494)"/>
<mask id="mask0_0_4494" style="mask-type:alpha" maskUnits="userSpaceOnUse" x="11" y="4" width="150" height="97">
<rect x="11.5293" y="4.51953" width="148.667" height="95.6573" rx="5.97656" fill="url(#paint1_linear_0_4494)"/>
</mask>
<g mask="url(#mask0_0_4494)">
<path d="M23.1841 79.3112C23.2041 79.3112 23.2213 79.3189 23.2357 79.3345L23.3756 79.4877C23.2779 79.6031 23.1586 79.6925 23.0176 79.7558C22.8777 79.819 22.709 79.8507 22.5114 79.8507C22.3382 79.8507 22.1811 79.8207 22.0401 79.7608C21.9003 79.7008 21.7804 79.617 21.6805 79.5093C21.5817 79.4016 21.5051 79.2729 21.4507 79.123C21.3963 78.9732 21.3691 78.8083 21.3691 78.6285C21.3691 78.4486 21.3974 78.2838 21.454 78.1339C21.5117 77.9841 21.5922 77.8553 21.6955 77.7476C21.7987 77.6399 21.9219 77.5561 22.0651 77.4962C22.2094 77.4362 22.3687 77.4063 22.543 77.4063C22.7129 77.4063 22.8638 77.434 22.9959 77.4895C23.128 77.545 23.2429 77.6189 23.3406 77.711L23.224 77.8758C23.2163 77.8881 23.2063 77.898 23.1941 77.9058C23.183 77.9136 23.168 77.9175 23.1491 77.9175C23.128 77.9175 23.103 77.9069 23.0742 77.8858C23.0464 77.8647 23.0092 77.8414 22.9626 77.8159C22.9171 77.7893 22.8605 77.7654 22.7928 77.7443C22.7251 77.7232 22.6407 77.7127 22.5397 77.7127C22.4209 77.7127 22.3121 77.7338 22.2133 77.7759C22.1145 77.817 22.029 77.877 21.9569 77.9558C21.8858 78.0335 21.8303 78.1295 21.7904 78.2438C21.7515 78.3571 21.7321 78.4853 21.7321 78.6285C21.7321 78.7739 21.7526 78.9032 21.7937 79.0165C21.8348 79.1297 21.8914 79.2257 21.9635 79.3045C22.0357 79.3833 22.1206 79.4433 22.2183 79.4844C22.316 79.5254 22.4215 79.546 22.5347 79.546C22.6035 79.546 22.6651 79.5421 22.7195 79.5343C22.775 79.5254 22.8255 79.5127 22.871 79.496C22.9177 79.4794 22.9615 79.4583 23.0026 79.4327C23.0437 79.4061 23.0842 79.3745 23.1241 79.3378C23.133 79.33 23.1425 79.3239 23.1524 79.3195C23.1624 79.314 23.173 79.3112 23.1841 79.3112ZM24.5745 79.0731C24.4424 79.0775 24.3303 79.0881 24.2382 79.1047C24.146 79.1202 24.0711 79.1413 24.0134 79.168C23.9556 79.1946 23.914 79.2263 23.8885 79.2629C23.863 79.2984 23.8502 79.3384 23.8502 79.3828C23.8502 79.425 23.8568 79.4616 23.8702 79.4927C23.8846 79.5226 23.9035 79.5476 23.9268 79.5676C23.9512 79.5865 23.9795 79.6004 24.0117 79.6092C24.0439 79.6181 24.0789 79.6226 24.1166 79.6226C24.1666 79.6226 24.2121 79.6176 24.2531 79.6076C24.2953 79.5976 24.3347 79.5837 24.3714 79.5659C24.408 79.5471 24.443 79.5243 24.4763 79.4977C24.5096 79.471 24.5423 79.4405 24.5745 79.4061V79.0731ZM23.6221 78.3687C23.7164 78.2788 23.8185 78.2116 23.9284 78.1672C24.0395 78.1228 24.161 78.1006 24.2931 78.1006C24.3897 78.1006 24.4752 78.1167 24.5495 78.1489C24.6239 78.18 24.6866 78.2239 24.7377 78.2805C24.7888 78.3371 24.8271 78.4048 24.8526 78.4836C24.8792 78.5624 24.8926 78.6496 24.8926 78.745V79.824H24.7477C24.7155 79.824 24.6911 79.819 24.6744 79.809C24.6578 79.7979 24.6444 79.778 24.6345 79.7491L24.5995 79.6009C24.5562 79.6409 24.5135 79.6764 24.4713 79.7075C24.4291 79.7374 24.3847 79.7635 24.3381 79.7857C24.2926 79.8068 24.2437 79.8229 24.1915 79.834C24.1394 79.8451 24.0816 79.8507 24.0184 79.8507C23.9518 79.8507 23.889 79.8418 23.8302 79.824C23.7725 79.8052 23.722 79.7769 23.6787 79.7391C23.6354 79.7014 23.601 79.6542 23.5754 79.5976C23.551 79.541 23.5388 79.4749 23.5388 79.3994C23.5388 79.3328 23.5566 79.269 23.5921 79.2079C23.6287 79.1458 23.6876 79.0903 23.7686 79.0414C23.8507 78.9926 23.9573 78.9526 24.0883 78.9215C24.2204 78.8905 24.3825 78.8727 24.5745 78.8683V78.745C24.5745 78.6174 24.5473 78.5219 24.4929 78.4586C24.4385 78.3954 24.3586 78.3637 24.2531 78.3637C24.1821 78.3637 24.1222 78.3726 24.0733 78.3904C24.0256 78.4081 23.984 78.4281 23.9484 78.4503C23.914 78.4714 23.8835 78.4908 23.8568 78.5086C23.8313 78.5263 23.8047 78.5352 23.7769 78.5352C23.7547 78.5352 23.7353 78.5291 23.7186 78.5169C23.7031 78.5047 23.6903 78.4903 23.6803 78.4736L23.6221 78.3687ZM25.6336 78.457C25.688 78.346 25.7535 78.2588 25.8301 78.1955C25.9067 78.1323 25.9988 78.1006 26.1065 78.1006C26.1431 78.1006 26.1776 78.1051 26.2097 78.114C26.243 78.1217 26.2719 78.1339 26.2963 78.1506L26.2747 78.3954C26.2669 78.4253 26.2486 78.4403 26.2197 78.4403C26.2042 78.4403 26.1809 78.4375 26.1498 78.432C26.1187 78.4253 26.0854 78.422 26.0499 78.422C25.9977 78.422 25.9516 78.4298 25.9117 78.4453C25.8717 78.4597 25.8356 78.4819 25.8035 78.5119C25.7724 78.5408 25.7446 78.5769 25.7202 78.6202C25.6958 78.6623 25.673 78.7106 25.6519 78.765V79.824H25.3272V78.1323H25.5137C25.5492 78.1323 25.5731 78.1389 25.5853 78.1523C25.5986 78.1645 25.6081 78.1867 25.6136 78.2189L25.6336 78.457ZM27.5789 78.5419C27.5256 78.472 27.4679 78.4231 27.4057 78.3954C27.3447 78.3676 27.2759 78.3537 27.1993 78.3537C27.0505 78.3537 26.9351 78.4076 26.8529 78.5152C26.7719 78.6218 26.7314 78.7778 26.7314 78.9831C26.7314 79.0908 26.7402 79.183 26.758 79.2596C26.7769 79.335 26.8035 79.3972 26.8379 79.4461C26.8735 79.4938 26.9168 79.5293 26.9678 79.5526C27.0189 79.5748 27.0766 79.5859 27.141 79.5859C27.2353 79.5859 27.3169 79.5648 27.3858 79.5226C27.4546 79.4805 27.519 79.4211 27.5789 79.3445V78.5419ZM27.9053 77.3663V79.824H27.7088C27.6633 79.824 27.635 79.8024 27.6239 79.7591L27.5956 79.5643C27.5234 79.6498 27.4413 79.7186 27.3491 79.7708C27.2581 79.8218 27.1526 79.8473 27.0328 79.8473C26.9362 79.8473 26.8485 79.8285 26.7697 79.7907C26.692 79.753 26.6254 79.698 26.5699 79.6259C26.5143 79.5526 26.4716 79.4621 26.4416 79.3545C26.4117 79.2468 26.3967 79.123 26.3967 78.9831C26.3967 78.8577 26.4133 78.7412 26.4466 78.6335C26.4799 78.5258 26.5282 78.4325 26.5915 78.3537C26.6548 78.2749 26.7314 78.2133 26.8213 78.1689C26.9112 78.1234 27.0128 78.1006 27.126 78.1006C27.2281 78.1006 27.3147 78.1173 27.3858 78.1506C27.4579 78.1839 27.5223 78.2311 27.5789 78.2921V77.3663H27.9053ZM29.5253 78.3471C29.5963 78.2749 29.6746 78.2166 29.7601 78.1722C29.8467 78.1278 29.946 78.1056 30.0581 78.1056C30.1514 78.1056 30.233 78.1212 30.3029 78.1523C30.3739 78.1833 30.4333 78.2272 30.4811 78.2838C30.5288 78.3393 30.5649 78.4065 30.5893 78.4853C30.6137 78.5641 30.6259 78.6512 30.6259 78.7467V79.824H30.2996V78.7467C30.2996 78.6257 30.2718 78.5319 30.2163 78.4653C30.1608 78.3976 30.0759 78.3637 29.9616 78.3637C29.8783 78.3637 29.8 78.3837 29.7268 78.4237C29.6546 78.4625 29.5875 78.5158 29.5253 78.5835V79.824H29.2006V77.3663H29.5253V78.3471ZM31.7851 78.1056C31.9094 78.1056 32.0215 78.1262 32.1215 78.1672C32.2225 78.2072 32.3079 78.2655 32.3779 78.3421C32.4489 78.4176 32.5033 78.5091 32.5411 78.6168C32.5788 78.7234 32.5977 78.8433 32.5977 78.9765C32.5977 79.1097 32.5788 79.2301 32.5411 79.3378C32.5033 79.4455 32.4489 79.5371 32.3779 79.6126C32.3079 79.6881 32.2225 79.7463 32.1215 79.7874C32.0215 79.8274 31.9094 79.8473 31.7851 79.8473C31.6597 79.8473 31.5464 79.8274 31.4454 79.7874C31.3455 79.7463 31.26 79.6881 31.189 79.6126C31.1179 79.5371 31.063 79.4455 31.0241 79.3378C30.9864 79.2301 30.9675 79.1097 30.9675 78.9765C30.9675 78.8433 30.9864 78.7234 31.0241 78.6168C31.063 78.5091 31.1179 78.4176 31.189 78.3421C31.26 78.2655 31.3455 78.2072 31.4454 78.1672C31.5464 78.1262 31.6597 78.1056 31.7851 78.1056ZM31.7851 79.5942C31.9449 79.5942 32.0643 79.5404 32.1431 79.4327C32.2219 79.3251 32.2613 79.1735 32.2613 78.9782C32.2613 78.7828 32.2219 78.6313 32.1431 78.5236C32.0643 78.4148 31.9449 78.3604 31.7851 78.3604C31.623 78.3604 31.502 78.4148 31.4221 78.5236C31.3433 78.6313 31.3039 78.7828 31.3039 78.9782C31.3039 79.1735 31.3433 79.3251 31.4221 79.4327C31.502 79.5404 31.623 79.5942 31.7851 79.5942ZM33.2932 77.3663V79.824H32.9668V77.3663H33.2932ZM34.8476 78.5419C34.7943 78.472 34.7366 78.4231 34.6744 78.3954C34.6133 78.3676 34.5445 78.3537 34.4679 78.3537C34.3192 78.3537 34.2037 78.4076 34.1216 78.5152C34.0405 78.6218 34 78.7778 34 78.9831C34 79.0908 34.0089 79.183 34.0267 79.2596C34.0455 79.335 34.0722 79.3972 34.1066 79.4461C34.1421 79.4938 34.1854 79.5293 34.2365 79.5526C34.2875 79.5748 34.3453 79.5859 34.4096 79.5859C34.504 79.5859 34.5856 79.5648 34.6544 79.5226C34.7232 79.4805 34.7876 79.4211 34.8476 79.3445V78.5419ZM35.1739 77.3663V79.824H34.9774C34.9319 79.824 34.9036 79.8024 34.8925 79.7591L34.8642 79.5643C34.7921 79.6498 34.7099 79.7186 34.6178 79.7708C34.5268 79.8218 34.4213 79.8473 34.3014 79.8473C34.2048 79.8473 34.1171 79.8285 34.0383 79.7907C33.9606 79.753 33.894 79.698 33.8385 79.6259C33.783 79.5526 33.7403 79.4621 33.7103 79.3545C33.6803 79.2468 33.6653 79.123 33.6653 78.9831C33.6653 78.8577 33.682 78.7412 33.7153 78.6335C33.7486 78.5258 33.7969 78.4325 33.8602 78.3537C33.9234 78.2749 34 78.2133 34.0899 78.1689C34.1799 78.1234 34.2814 78.1006 34.3947 78.1006C34.4968 78.1006 34.5834 78.1173 34.6544 78.1506C34.7266 78.1839 34.791 78.2311 34.8476 78.2921V77.3663H35.1739ZM36.7476 78.79C36.7476 78.7256 36.7381 78.6662 36.7192 78.6118C36.7015 78.5574 36.6748 78.5103 36.6393 78.4703C36.6038 78.4303 36.5605 78.3992 36.5094 78.377C36.4584 78.3548 36.3995 78.3437 36.3329 78.3437C36.1964 78.3437 36.0887 78.3831 36.0099 78.462C35.9322 78.5408 35.8828 78.6501 35.8617 78.79H36.7476ZM37.0156 79.5826C36.9757 79.6292 36.9296 79.6697 36.8774 79.7041C36.8253 79.7374 36.7698 79.7646 36.7109 79.7857C36.6521 79.8068 36.591 79.8224 36.5278 79.8324C36.4656 79.8424 36.404 79.8473 36.3429 79.8473C36.2264 79.8473 36.1181 79.8279 36.0182 79.7891C35.9194 79.7491 35.8334 79.6914 35.7601 79.6159C35.688 79.5393 35.6314 79.4449 35.5903 79.3328C35.5503 79.2196 35.5303 79.0897 35.5303 78.9432C35.5303 78.8255 35.5487 78.7162 35.5853 78.6152C35.6219 78.513 35.6741 78.4242 35.7418 78.3487C35.8106 78.2733 35.8945 78.2139 35.9933 78.1706C36.0921 78.1273 36.2031 78.1056 36.3263 78.1056C36.4295 78.1056 36.5244 78.1228 36.611 78.1572C36.6987 78.1905 36.7742 78.2394 36.8375 78.3038C36.9007 78.3682 36.9501 78.4475 36.9857 78.5419C37.0223 78.6362 37.0406 78.7439 37.0406 78.8649C37.0406 78.9149 37.0351 78.9487 37.024 78.9665C37.0129 78.9831 36.9923 78.9915 36.9624 78.9915H35.8534C35.8567 79.0925 35.8711 79.1807 35.8967 79.2562C35.9222 79.3306 35.9572 79.3928 36.0016 79.4427C36.0471 79.4927 36.1009 79.5299 36.1631 79.5543C36.2253 79.5787 36.2946 79.5909 36.3712 79.5909C36.4434 79.5909 36.5056 79.5826 36.5577 79.5659C36.611 79.5493 36.6565 79.5315 36.6943 79.5127C36.7331 79.4927 36.7653 79.4744 36.7908 79.4577C36.8175 79.4411 36.8408 79.4327 36.8608 79.4327C36.8874 79.4327 36.908 79.4427 36.9224 79.4627L37.0156 79.5826ZM37.696 78.457C37.7504 78.346 37.8159 78.2588 37.8925 78.1955C37.9691 78.1323 38.0612 78.1006 38.1689 78.1006C38.2055 78.1006 38.2399 78.1051 38.2721 78.114C38.3054 78.1217 38.3343 78.1339 38.3587 78.1506L38.3371 78.3954C38.3293 78.4253 38.311 78.4403 38.2821 78.4403C38.2666 78.4403 38.2433 78.4375 38.2122 78.432C38.1811 78.4253 38.1478 78.422 38.1123 78.422C38.0601 78.422 38.014 78.4298 37.9741 78.4453C37.9341 78.4597 37.898 78.4819 37.8658 78.5119C37.8348 78.5408 37.807 78.5769 37.7826 78.6202C37.7582 78.6623 37.7354 78.7106 37.7143 78.765V79.824H37.3896V78.1323H37.5761C37.6116 78.1323 37.6355 78.1389 37.6477 78.1523C37.661 78.1645 37.6705 78.1867 37.676 78.2189L37.696 78.457Z" fill="white"/>
<path d="M110.516 87.9469C110.516 101.335 99.6627 112.189 86.2743 112.189C72.8858 112.189 62.0324 101.335 62.0324 87.9469C62.0324 80.8881 65.0494 74.5339 69.8643 70.1035C74.1817 66.1308 79.9447 63.705 86.2743 63.705C99.6627 63.705 110.516 74.5585 110.516 87.9469Z" fill="white" fill-opacity="0.12"/>
<path d="M110.516 87.9469C110.516 101.335 99.6627 112.189 86.2743 112.189H156.238C142.85 112.189 131.996 101.335 131.996 87.9469C131.996 86.2367 132.173 84.5679 132.51 82.9577C131.368 83.1227 130.201 83.208 129.014 83.208C117.247 83.208 107.438 74.8247 105.235 63.705H89.4216H86.2743C99.6627 63.705 110.516 74.5585 110.516 87.9469Z" fill="white" fill-opacity="0.12"/>
<path d="M105.235 63.705C104.931 62.1724 104.772 60.5879 104.772 58.9661C104.772 56.8362 105.046 54.7705 105.562 52.8023C103.537 56.4366 97.4724 63.705 89.4216 63.705H105.235Z" fill="white" fill-opacity="0.12"/>
<path fill-rule="evenodd" clip-rule="evenodd" d="M156.238 112.189C169.626 112.189 180.48 101.335 180.48 87.9469C180.48 74.5585 169.626 63.705 156.238 63.705C155.051 63.705 153.883 63.7904 152.742 63.9553C150.675 73.8324 142.597 81.5006 132.51 82.9577C132.173 84.5679 131.996 86.2367 131.996 87.9469C131.996 101.335 142.85 112.189 156.238 112.189Z" fill="white" fill-opacity="0.12"/>
<path d="M152.742 63.9553C150.675 73.8324 142.597 81.5006 132.51 82.9577C134.576 73.0807 142.654 65.4125 152.742 63.9553Z" fill="white" fill-opacity="0.12"/>
<path d="M153.256 58.9661C153.256 45.5777 142.402 34.7242 129.014 34.7242C117.755 34.7242 108.289 42.3991 105.562 52.8023C105.046 54.7705 104.772 56.8362 104.772 58.9661C104.772 60.5879 104.931 62.1724 105.235 63.705C107.438 74.8247 117.247 83.208 129.014 83.208C130.201 83.208 131.368 83.1227 132.51 82.9577C134.576 73.0807 142.654 65.4125 152.742 63.9553C153.078 62.3452 153.256 60.6763 153.256 58.9661Z" fill="white" fill-opacity="0.12"/>
</g>
<path d="M25.6095 16.8027C25.7441 16.87 25.8218 16.9762 25.8426 17.1213C25.8685 17.2663 25.8322 17.3984 25.7338 17.5176C25.6664 17.6108 25.5784 17.6626 25.4696 17.673C25.366 17.6833 25.2598 17.6626 25.151 17.6108C25.0267 17.5538 24.8946 17.5098 24.7547 17.4787C24.62 17.4476 24.4776 17.4321 24.3274 17.4321C24.0476 17.4321 23.7964 17.4761 23.5736 17.5642C23.3561 17.6523 23.1696 17.7792 23.0142 17.9449C22.8588 18.1055 22.7396 18.2972 22.6567 18.5199C22.579 18.7427 22.5402 18.9887 22.5402 19.2581C22.5402 19.5741 22.5842 19.8487 22.6723 20.0818C22.7655 20.3149 22.8924 20.5091 23.053 20.6645C23.2136 20.8199 23.4027 20.9365 23.6203 21.0142C23.8378 21.0867 24.0735 21.123 24.3274 21.123C24.4672 21.123 24.6071 21.11 24.747 21.0841C24.8868 21.0582 25.0215 21.0116 25.151 20.9443C25.2598 20.8925 25.366 20.8743 25.4696 20.8899C25.5784 20.9054 25.669 20.9598 25.7416 21.0531C25.8452 21.1826 25.8814 21.3172 25.8503 21.4571C25.8244 21.5918 25.7467 21.6902 25.6172 21.7524C25.4825 21.8197 25.3427 21.8767 25.1976 21.9233C25.0578 21.9648 24.9153 21.9959 24.7703 22.0166C24.6252 22.0425 24.4776 22.0554 24.3274 22.0554C23.9544 22.0554 23.5995 21.9959 23.2628 21.8767C22.9313 21.7576 22.6334 21.5814 22.3692 21.3483C22.1102 21.1152 21.9056 20.8251 21.7554 20.4781C21.6052 20.1258 21.5301 19.7192 21.5301 19.2581C21.5301 18.8592 21.5974 18.4914 21.7321 18.1547C21.8719 17.818 22.0662 17.5279 22.3148 17.2845C22.5687 17.0358 22.8665 16.8441 23.2084 16.7095C23.5503 16.5696 23.9233 16.4997 24.3274 16.4997C24.5553 16.4997 24.778 16.5256 24.9956 16.5774C25.2132 16.6292 25.4178 16.7043 25.6095 16.8027ZM28.554 22.0554C28.1137 22.0554 27.7304 21.9648 27.404 21.7835C27.0829 21.597 26.8342 21.3457 26.6581 21.0297C26.4871 20.7138 26.4017 20.3563 26.4017 19.9574C26.4017 19.4912 26.4949 19.0949 26.6814 18.7686C26.8731 18.4371 27.1217 18.1832 27.4273 18.0071C27.733 17.831 28.0567 17.7429 28.3986 17.7429C28.6628 17.7429 28.9115 17.7973 29.1446 17.9061C29.3829 18.0149 29.5927 18.1651 29.774 18.3568C29.9553 18.5433 30.0977 18.7608 30.2013 19.0095C30.3101 19.2581 30.3645 19.5223 30.3645 19.802C30.3593 19.9264 30.3101 20.0274 30.2169 20.1051C30.1236 20.1828 30.0148 20.2216 29.8905 20.2216H26.9223L26.6892 19.4446H29.5409L29.3699 19.6V19.3902C29.3596 19.24 29.3052 19.1053 29.2067 18.9862C29.1135 18.867 28.9943 18.7738 28.8493 18.7064C28.7094 18.6339 28.5592 18.5976 28.3986 18.5976C28.2432 18.5976 28.0982 18.6184 27.9635 18.6598C27.8288 18.7012 27.7123 18.7712 27.6138 18.8696C27.5154 18.968 27.4377 19.1001 27.3807 19.2659C27.3237 19.4317 27.2952 19.6415 27.2952 19.8953C27.2952 20.175 27.3522 20.4133 27.4662 20.6102C27.5853 20.8018 27.7356 20.9495 27.9169 21.0531C28.1034 21.1515 28.3002 21.2007 28.5074 21.2007C28.6991 21.2007 28.8519 21.1852 28.9659 21.1541C29.0798 21.123 29.1705 21.0867 29.2378 21.0453C29.3103 20.9987 29.3751 20.9598 29.4321 20.9287C29.5253 20.8821 29.6134 20.8588 29.6963 20.8588C29.8102 20.8588 29.9035 20.8977 29.976 20.9754C30.0537 21.0531 30.0926 21.1437 30.0926 21.2473C30.0926 21.3872 30.02 21.5141 29.875 21.6281C29.7403 21.742 29.5512 21.843 29.3078 21.9311C29.0643 22.014 28.813 22.0554 28.554 22.0554ZM33.4015 17.7429C33.7848 17.7429 34.0749 17.8232 34.2718 17.9838C34.4738 18.1444 34.6111 18.3594 34.6836 18.6287C34.7613 18.8929 34.8001 19.1882 34.8001 19.5145V21.5037C34.8001 21.6384 34.7561 21.7524 34.668 21.8456C34.58 21.9337 34.4686 21.9777 34.3339 21.9777C34.1992 21.9777 34.0879 21.9337 33.9998 21.8456C33.9117 21.7524 33.8677 21.6384 33.8677 21.5037V19.5145C33.8677 19.3436 33.8444 19.1908 33.7978 19.0561C33.7563 18.9162 33.6786 18.8049 33.5647 18.722C33.4507 18.6391 33.2875 18.5976 33.0751 18.5976C32.8679 18.5976 32.6918 18.6391 32.5468 18.722C32.4069 18.8049 32.2981 18.9162 32.2204 19.0561C32.1479 19.1908 32.1116 19.3436 32.1116 19.5145V21.5037C32.1116 21.6384 32.0676 21.7524 31.9795 21.8456C31.8915 21.9337 31.7801 21.9777 31.6454 21.9777C31.5107 21.9777 31.3993 21.9337 31.3113 21.8456C31.2232 21.7524 31.1792 21.6384 31.1792 21.5037V18.2946C31.1792 18.1599 31.2232 18.0485 31.3113 17.9605C31.3993 17.8672 31.5107 17.8206 31.6454 17.8206C31.7801 17.8206 31.8915 17.8672 31.9795 17.9605C32.0676 18.0485 32.1116 18.1599 32.1116 18.2946V18.6287L31.9951 18.6054C32.0417 18.5174 32.109 18.4241 32.1971 18.3257C32.2852 18.2221 32.3888 18.1262 32.5079 18.0382C32.627 17.9501 32.7617 17.8802 32.912 17.8284C33.0622 17.7714 33.2254 17.7429 33.4015 17.7429ZM35.8546 17.8983H37.6962C37.8205 17.8983 37.9241 17.9398 38.007 18.0226C38.0898 18.1055 38.1313 18.2091 38.1313 18.3335C38.1313 18.4526 38.0898 18.5536 38.007 18.6365C37.9241 18.7142 37.8205 18.753 37.6962 18.753H35.8546C35.7303 18.753 35.6267 18.7116 35.5438 18.6287C35.4609 18.5458 35.4195 18.4422 35.4195 18.3179C35.4195 18.1988 35.4609 18.1003 35.5438 18.0226C35.6267 17.9398 35.7303 17.8983 35.8546 17.8983ZM36.686 16.927C36.8207 16.927 36.9295 16.9737 37.0124 17.0669C37.1004 17.155 37.1445 17.2663 37.1445 17.401V20.8588C37.1445 20.9313 37.1574 20.9909 37.1833 21.0375C37.2144 21.0841 37.2532 21.1178 37.2999 21.1385C37.3517 21.1593 37.4061 21.1696 37.463 21.1696C37.5252 21.1696 37.5822 21.1593 37.634 21.1385C37.6858 21.1126 37.7454 21.0997 37.8127 21.0997C37.8852 21.0997 37.95 21.1334 38.007 21.2007C38.0691 21.268 38.1002 21.3613 38.1002 21.4804C38.1002 21.6255 38.0199 21.7446 37.8593 21.8379C37.7039 21.9311 37.5356 21.9777 37.3543 21.9777C37.2455 21.9777 37.1237 21.97 36.9891 21.9544C36.8595 21.9337 36.7352 21.8897 36.6161 21.8223C36.5021 21.7498 36.4063 21.641 36.3286 21.496C36.2509 21.3509 36.212 21.1515 36.212 20.8977V17.401C36.212 17.2663 36.2561 17.155 36.3441 17.0669C36.4374 16.9737 36.5513 16.927 36.686 16.927ZM39.4536 21.9777C39.3189 21.9777 39.2076 21.9337 39.1195 21.8456C39.0314 21.7524 38.9874 21.6384 38.9874 21.5037V18.2946C38.9874 18.1599 39.0314 18.0485 39.1195 17.9605C39.2076 17.8672 39.3189 17.8206 39.4536 17.8206C39.5883 17.8206 39.6997 17.8672 39.7878 17.9605C39.8758 18.0485 39.9199 18.1599 39.9199 18.2946V19.025L39.8655 18.5044C39.9224 18.3801 39.995 18.2713 40.083 18.178C40.1763 18.0796 40.2799 17.9993 40.3938 17.9372C40.5078 17.8698 40.6295 17.8206 40.759 17.7895C40.8885 17.7585 41.0181 17.7429 41.1476 17.7429C41.303 17.7429 41.4325 17.7869 41.5361 17.875C41.6449 17.9631 41.6992 18.0667 41.6992 18.1858C41.6992 18.3568 41.6552 18.4811 41.5672 18.5588C41.4791 18.6313 41.3833 18.6676 41.2797 18.6676C41.1812 18.6676 41.0906 18.6494 41.0077 18.6132C40.93 18.5769 40.8393 18.5588 40.7357 18.5588C40.6425 18.5588 40.5467 18.5821 40.4482 18.6287C40.355 18.6702 40.2669 18.7375 40.184 18.8308C40.1063 18.924 40.0416 19.0406 39.9898 19.1804C39.9432 19.3151 39.9199 19.4757 39.9199 19.6622V21.5037C39.9199 21.6384 39.8758 21.7524 39.7878 21.8456C39.6997 21.9337 39.5883 21.9777 39.4536 21.9777ZM45.6689 17.7429C45.8036 17.7429 45.915 17.7869 46.003 17.875C46.0911 17.9631 46.1351 18.077 46.1351 18.2169V21.5037C46.1351 21.6384 46.0911 21.7524 46.003 21.8456C45.915 21.9337 45.8036 21.9777 45.6689 21.9777C45.5342 21.9777 45.4228 21.9337 45.3348 21.8456C45.2467 21.7524 45.2027 21.6384 45.2027 21.5037V21.123L45.3736 21.1929C45.3736 21.2603 45.3374 21.3431 45.2648 21.4416C45.1923 21.5348 45.0939 21.6281 44.9696 21.7213C44.8452 21.8145 44.6976 21.8948 44.5267 21.9622C44.3609 22.0243 44.1796 22.0554 43.9827 22.0554C43.6253 22.0554 43.3015 21.9648 43.0115 21.7835C42.7214 21.597 42.4908 21.3431 42.3199 21.022C42.1541 20.6956 42.0713 20.3226 42.0713 19.9031C42.0713 19.4783 42.1541 19.1053 42.3199 18.7841C42.4908 18.4578 42.7188 18.2039 43.0037 18.0226C43.2886 17.8362 43.6046 17.7429 43.9517 17.7429C44.1744 17.7429 44.379 17.7766 44.5655 17.8439C44.752 17.9113 44.9126 17.9967 45.0473 18.1003C45.1871 18.2039 45.2933 18.3101 45.3659 18.4189C45.4436 18.5225 45.4824 18.6106 45.4824 18.6831L45.2027 18.7841V18.2169C45.2027 18.0822 45.2467 17.9708 45.3348 17.8828C45.4228 17.7895 45.5342 17.7429 45.6689 17.7429ZM44.0993 21.2007C44.3272 21.2007 44.5267 21.1437 44.6976 21.0297C44.8686 20.9158 45.0007 20.7604 45.0939 20.5635C45.1923 20.3667 45.2415 20.1465 45.2415 19.9031C45.2415 19.6544 45.1923 19.4317 45.0939 19.2348C45.0007 19.038 44.8686 18.8826 44.6976 18.7686C44.5267 18.6546 44.3272 18.5976 44.0993 18.5976C43.8766 18.5976 43.6797 18.6546 43.5088 18.7686C43.3378 18.8826 43.2031 19.038 43.1047 19.2348C43.0115 19.4317 42.9648 19.6544 42.9648 19.9031C42.9648 20.1465 43.0115 20.3667 43.1047 20.5635C43.2031 20.7604 43.3378 20.9158 43.5088 21.0297C43.6797 21.1437 43.8766 21.2007 44.0993 21.2007ZM48.1548 21.5037C48.1548 21.6384 48.1082 21.7524 48.015 21.8456C47.9269 21.9337 47.8155 21.9777 47.6809 21.9777C47.5514 21.9777 47.4426 21.9337 47.3545 21.8456C47.2664 21.7524 47.2224 21.6384 47.2224 21.5037V16.7017C47.2224 16.567 47.2664 16.4556 47.3545 16.3676C47.4477 16.2743 47.5617 16.2277 47.6964 16.2277C47.8311 16.2277 47.9399 16.2743 48.0228 16.3676C48.1108 16.4556 48.1548 16.567 48.1548 16.7017V21.5037ZM53.9267 16.5385C54.424 16.5385 54.7943 16.6551 55.0378 16.8882C55.2813 17.1213 55.403 17.4658 55.403 17.9216C55.403 18.1651 55.3434 18.3801 55.2243 18.5666C55.1052 18.7479 54.929 18.8903 54.6959 18.9939C54.4628 19.0924 54.1753 19.1416 53.8334 19.1416L53.8645 18.7919C54.0251 18.7919 54.209 18.8152 54.4162 18.8618C54.6234 18.9033 54.8228 18.981 55.0145 19.0949C55.2113 19.2037 55.3719 19.3591 55.4963 19.5612C55.6258 19.758 55.6905 20.0118 55.6905 20.3226C55.6905 20.6645 55.6335 20.9443 55.5196 21.1618C55.4108 21.3794 55.2657 21.5478 55.0844 21.6669C54.9031 21.7861 54.7089 21.8689 54.5017 21.9156C54.2945 21.957 54.095 21.9777 53.9033 21.9777H51.9685C51.8339 21.9777 51.7199 21.9337 51.6267 21.8456C51.5386 21.7524 51.4946 21.6384 51.4946 21.5037V17.0125C51.4946 16.8778 51.5386 16.7664 51.6267 16.6784C51.7199 16.5851 51.8339 16.5385 51.9685 16.5385H53.9267ZM53.7868 17.4554H52.4037L52.5047 17.3311V18.7375L52.4115 18.6676H53.8101C53.9603 18.6676 54.095 18.6184 54.2142 18.5199C54.3333 18.4215 54.3929 18.2791 54.3929 18.0926C54.3929 17.8698 54.3359 17.7092 54.2219 17.6108C54.1131 17.5072 53.9681 17.4554 53.7868 17.4554ZM53.849 19.5845H52.4348L52.5047 19.5223V21.1618L52.427 21.0841H53.9033C54.1416 21.0841 54.3307 21.022 54.4706 20.8977C54.6104 20.7681 54.6804 20.5765 54.6804 20.3226C54.6804 20.0895 54.6338 19.9212 54.5405 19.8176C54.4473 19.714 54.3359 19.6492 54.2064 19.6233C54.0769 19.5974 53.9577 19.5845 53.849 19.5845ZM59.9119 17.7429C60.0466 17.7429 60.158 17.7869 60.246 17.875C60.3341 17.9631 60.3781 18.077 60.3781 18.2169V21.5037C60.3781 21.6384 60.3341 21.7524 60.246 21.8456C60.158 21.9337 60.0466 21.9777 59.9119 21.9777C59.7772 21.9777 59.6659 21.9337 59.5778 21.8456C59.4897 21.7524 59.4457 21.6384 59.4457 21.5037V21.123L59.6166 21.1929C59.6166 21.2603 59.5804 21.3431 59.5079 21.4416C59.4353 21.5348 59.3369 21.6281 59.2126 21.7213C59.0883 21.8145 58.9406 21.8948 58.7697 21.9622C58.6039 22.0243 58.4226 22.0554 58.2258 22.0554C57.8683 22.0554 57.5446 21.9648 57.2545 21.7835C56.9644 21.597 56.7339 21.3431 56.5629 21.022C56.3971 20.6956 56.3143 20.3226 56.3143 19.9031C56.3143 19.4783 56.3971 19.1053 56.5629 18.7841C56.7339 18.4578 56.9618 18.2039 57.2467 18.0226C57.5316 17.8362 57.8476 17.7429 58.1947 17.7429C58.4174 17.7429 58.622 17.7766 58.8085 17.8439C58.995 17.9113 59.1556 17.9967 59.2903 18.1003C59.4302 18.2039 59.5363 18.3101 59.6089 18.4189C59.6866 18.5225 59.7254 18.6106 59.7254 18.6831L59.4457 18.7841V18.2169C59.4457 18.0822 59.4897 17.9708 59.5778 17.8828C59.6659 17.7895 59.7772 17.7429 59.9119 17.7429ZM58.3423 21.2007C58.5702 21.2007 58.7697 21.1437 58.9406 21.0297C59.1116 20.9158 59.2437 20.7604 59.3369 20.5635C59.4353 20.3667 59.4845 20.1465 59.4845 19.9031C59.4845 19.6544 59.4353 19.4317 59.3369 19.2348C59.2437 19.038 59.1116 18.8826 58.9406 18.7686C58.7697 18.6546 58.5702 18.5976 58.3423 18.5976C58.1196 18.5976 57.9227 18.6546 57.7518 18.7686C57.5808 18.8826 57.4461 19.038 57.3477 19.2348C57.2545 19.4317 57.2078 19.6544 57.2078 19.9031C57.2078 20.1465 57.2545 20.3667 57.3477 20.5635C57.4461 20.7604 57.5808 20.9158 57.7518 21.0297C57.9227 21.1437 58.1196 21.2007 58.3423 21.2007ZM63.61 17.7429C63.9934 17.7429 64.2835 17.8232 64.4803 17.9838C64.6823 18.1444 64.8196 18.3594 64.8921 18.6287C64.9698 18.8929 65.0087 19.1882 65.0087 19.5145V21.5037C65.0087 21.6384 64.9646 21.7524 64.8766 21.8456C64.7885 21.9337 64.6771 21.9777 64.5425 21.9777C64.4078 21.9777 64.2964 21.9337 64.2083 21.8456C64.1203 21.7524 64.0762 21.6384 64.0762 21.5037V19.5145C64.0762 19.3436 64.0529 19.1908 64.0063 19.0561C63.9649 18.9162 63.8872 18.8049 63.7732 18.722C63.6592 18.6391 63.4961 18.5976 63.2837 18.5976C63.0765 18.5976 62.9003 18.6391 62.7553 18.722C62.6154 18.8049 62.5066 18.9162 62.4289 19.0561C62.3564 19.1908 62.3202 19.3436 62.3202 19.5145V21.5037C62.3202 21.6384 62.2761 21.7524 62.1881 21.8456C62.1 21.9337 61.9886 21.9777 61.8539 21.9777C61.7193 21.9777 61.6079 21.9337 61.5198 21.8456C61.4318 21.7524 61.3877 21.6384 61.3877 21.5037V18.2946C61.3877 18.1599 61.4318 18.0485 61.5198 17.9605C61.6079 17.8672 61.7193 17.8206 61.8539 17.8206C61.9886 17.8206 62.1 17.8672 62.1881 17.9605C62.2761 18.0485 62.3202 18.1599 62.3202 18.2946V18.6287L62.2036 18.6054C62.2502 18.5174 62.3176 18.4241 62.4056 18.3257C62.4937 18.2221 62.5973 18.1262 62.7164 18.0382C62.8356 17.9501 62.9703 17.8802 63.1205 17.8284C63.2707 17.7714 63.4339 17.7429 63.61 17.7429ZM66.5604 21.9777C66.4257 21.9777 66.3144 21.9337 66.2263 21.8456C66.1382 21.7524 66.0942 21.6384 66.0942 21.5037V16.7017C66.0942 16.567 66.1382 16.4556 66.2263 16.3676C66.3144 16.2743 66.4257 16.2277 66.5604 16.2277C66.6951 16.2277 66.8065 16.2743 66.8946 16.3676C66.9826 16.4556 67.0266 16.567 67.0266 16.7017V21.5037C67.0266 21.6384 66.9826 21.7524 66.8946 21.8456C66.8065 21.9337 66.6951 21.9777 66.5604 21.9777ZM69.0314 17.8206C69.1505 17.8206 69.2541 17.8698 69.3422 17.9682C69.4303 18.0667 69.4743 18.1625 69.4743 18.2558C69.4743 18.3801 69.4121 18.4966 69.2878 18.6054L66.9489 20.7578L66.9101 19.6855L68.6895 17.9682C68.7879 17.8698 68.9019 17.8206 69.0314 17.8206ZM69.1479 21.97C69.0133 21.97 68.8993 21.9181 68.806 21.8145L67.3685 20.2916L68.0756 19.6389L69.4743 21.1618C69.5727 21.2654 69.6219 21.382 69.6219 21.5115C69.6219 21.6462 69.5675 21.7576 69.4588 21.8456C69.3551 21.9285 69.2515 21.97 69.1479 21.97Z" fill="white"/>
<path d="M22.4068 26.4791C22.4997 26.4791 22.5806 26.4678 22.6496 26.4453C22.7186 26.4214 22.7757 26.3882 22.8209 26.3455C22.8673 26.3016 22.9018 26.2489 22.9244 26.1874C22.947 26.1247 22.9583 26.055 22.9583 25.9785C22.9583 25.9057 22.947 25.8399 22.9244 25.7809C22.9018 25.7219 22.8679 25.6717 22.8228 25.6303C22.7776 25.5889 22.7205 25.5575 22.6515 25.5362C22.5825 25.5136 22.5009 25.5023 22.4068 25.5023H22.0285V26.4791H22.4068ZM22.4068 25.1109C22.5888 25.1109 22.7462 25.1322 22.8792 25.1749C23.0122 25.2175 23.122 25.2771 23.2086 25.3537C23.2952 25.4302 23.3591 25.5218 23.4006 25.6284C23.4432 25.7351 23.4645 25.8518 23.4645 25.9785C23.4645 26.1102 23.4426 26.2313 23.3987 26.3417C23.3548 26.4509 23.2889 26.545 23.2011 26.6241C23.1132 26.7031 23.0028 26.7646 22.8698 26.8085C22.7381 26.8524 22.5837 26.8744 22.4068 26.8744H22.0285V27.8323H21.5223V25.1109H22.4068ZM24.6752 26.4057C24.7706 26.4057 24.8534 26.3938 24.9237 26.37C24.9952 26.3461 25.0535 26.3135 25.0987 26.2721C25.1451 26.2294 25.1796 26.1793 25.2022 26.1215C25.2248 26.0638 25.2361 26.0005 25.2361 25.9314C25.2361 25.7934 25.1903 25.6874 25.0987 25.6134C25.0084 25.5394 24.8697 25.5023 24.6828 25.5023H24.3591V26.4057H24.6752ZM25.9776 27.8323H25.5203C25.4337 27.8323 25.371 27.7985 25.3321 27.7307L24.7599 26.8593C24.7386 26.8267 24.7148 26.8035 24.6884 26.7897C24.6633 26.7759 24.6257 26.769 24.5755 26.769H24.3591V27.8323H23.8528V25.1109H24.6828C24.8672 25.1109 25.0253 25.1303 25.157 25.1692C25.29 25.2069 25.3986 25.2602 25.4826 25.3292C25.568 25.3982 25.6307 25.481 25.6709 25.5776C25.711 25.673 25.7311 25.7784 25.7311 25.8938C25.7311 25.9854 25.7173 26.072 25.6897 26.1535C25.6633 26.2351 25.6244 26.3091 25.573 26.3756C25.5228 26.4421 25.4601 26.5005 25.3848 26.5506C25.3108 26.6008 25.2261 26.6404 25.1307 26.6692C25.1633 26.688 25.1934 26.7106 25.221 26.737C25.2486 26.7621 25.2737 26.7922 25.2963 26.8273L25.9776 27.8323ZM26.7797 25.5136V26.2683H27.732V26.6579H26.7797V27.4277H27.988V27.8323H26.2715V25.1109H27.988V25.5136H26.7797ZM31.3877 25.1109V27.8323H30.9417V26.0745C30.9417 26.0042 30.9454 25.9283 30.953 25.8468L30.1305 27.3919C30.0916 27.466 30.032 27.503 29.9517 27.503H29.8802C29.7999 27.503 29.7403 27.466 29.7014 27.3919L28.8695 25.8411C28.8733 25.8825 28.8764 25.9233 28.8789 25.9634C28.8814 26.0036 28.8827 26.0406 28.8827 26.0745V27.8323H28.4366V25.1109H28.8187C28.8413 25.1109 28.8607 25.1115 28.877 25.1128C28.8934 25.114 28.9078 25.1171 28.9203 25.1222C28.9341 25.1272 28.9461 25.1353 28.9561 25.1466C28.9674 25.1579 28.978 25.173 28.9881 25.1918L29.803 26.7031C29.8243 26.7432 29.8438 26.7847 29.8614 26.8273C29.8802 26.87 29.8984 26.9139 29.9159 26.9591C29.9335 26.9126 29.9517 26.8681 29.9705 26.8254C29.9893 26.7815 30.0094 26.7395 30.0307 26.6993L30.8344 25.1918C30.8444 25.173 30.8551 25.1579 30.8664 25.1466C30.8777 25.1353 30.8896 25.1272 30.9021 25.1222C30.9159 25.1171 30.931 25.114 30.9473 25.1128C30.9636 25.1115 30.9831 25.1109 31.0057 25.1109H31.3877ZM32.5031 27.8323H31.9949V25.1109H32.5031V27.8323ZM34.2078 27.4239C34.3056 27.4239 34.3928 27.4076 34.4694 27.375C34.5472 27.3424 34.6124 27.2966 34.6651 27.2376C34.7178 27.1786 34.7579 27.1071 34.7856 27.023C34.8144 26.939 34.8288 26.8449 34.8288 26.7407V25.1109H35.3351V26.7407C35.3351 26.9026 35.3088 27.0525 35.2561 27.1906C35.2046 27.3273 35.13 27.4459 35.0321 27.5463C34.9355 27.6454 34.8175 27.7232 34.6783 27.7796C34.539 27.8348 34.3822 27.8624 34.2078 27.8624C34.0321 27.8624 33.8746 27.8348 33.7354 27.7796C33.5961 27.7232 33.4775 27.6454 33.3796 27.5463C33.283 27.4459 33.2084 27.3273 33.1557 27.1906C33.1042 27.0525 33.0785 26.9026 33.0785 26.7407V25.1109H33.5848V26.7389C33.5848 26.843 33.5986 26.9371 33.6262 27.0212C33.6551 27.1052 33.6958 27.1774 33.7485 27.2376C33.8025 27.2966 33.8677 27.3424 33.9443 27.375C34.0221 27.4076 34.1099 27.4239 34.2078 27.4239ZM38.8572 25.1109V27.8323H38.4111V26.0745C38.4111 26.0042 38.4149 25.9283 38.4224 25.8468L37.5999 27.3919C37.5611 27.466 37.5015 27.503 37.4212 27.503H37.3496C37.2693 27.503 37.2097 27.466 37.1708 27.3919L36.339 25.8411C36.3427 25.8825 36.3459 25.9233 36.3484 25.9634C36.3509 26.0036 36.3521 26.0406 36.3521 26.0745V27.8323H35.9061V25.1109H36.2881C36.3107 25.1109 36.3302 25.1115 36.3465 25.1128C36.3628 25.114 36.3772 25.1171 36.3898 25.1222C36.4036 25.1272 36.4155 25.1353 36.4255 25.1466C36.4368 25.1579 36.4475 25.173 36.4575 25.1918L37.2725 26.7031C37.2938 26.7432 37.3132 26.7847 37.3308 26.8273C37.3496 26.87 37.3678 26.9139 37.3854 26.9591C37.403 26.9126 37.4212 26.8681 37.44 26.8254C37.4588 26.7815 37.4789 26.7395 37.5002 26.6993L38.3038 25.1918C38.3139 25.173 38.3245 25.1579 38.3358 25.1466C38.3471 25.1353 38.359 25.1272 38.3716 25.1222C38.3854 25.1171 38.4005 25.114 38.4168 25.1128C38.4331 25.1115 38.4525 25.1109 38.4751 25.1109H38.8572ZM41.6926 26.8047L41.3613 25.8995C41.345 25.8593 41.3281 25.8116 41.3105 25.7564C41.293 25.7012 41.2754 25.6416 41.2578 25.5776C41.2415 25.6416 41.2246 25.7018 41.207 25.7583C41.1894 25.8135 41.1725 25.8618 41.1562 25.9032L40.8268 26.8047H41.6926ZM42.5866 27.8323H42.1951C42.1512 27.8323 42.1154 27.8217 42.0878 27.8003C42.0602 27.7778 42.0395 27.7502 42.0257 27.7175L41.8224 27.1623H40.6951L40.4918 27.7175C40.4818 27.7464 40.4623 27.7727 40.4335 27.7966C40.4046 27.8204 40.3689 27.8323 40.3262 27.8323H39.931L41.0019 25.1109H41.5176L42.5866 27.8323ZM44.6563 27.1906C44.6839 27.1906 44.7084 27.2012 44.7297 27.2225L44.9292 27.439C44.8188 27.5757 44.6826 27.6805 44.5208 27.7533C44.3602 27.8261 44.1669 27.8624 43.9411 27.8624C43.7391 27.8624 43.5572 27.8279 43.3953 27.7589C43.2347 27.6899 43.0973 27.5939 42.9831 27.471C42.8689 27.348 42.7811 27.2012 42.7196 27.0306C42.6594 26.8599 42.6293 26.6736 42.6293 26.4716C42.6293 26.2671 42.6619 26.0801 42.7272 25.9107C42.7924 25.7401 42.884 25.5933 43.0019 25.4703C43.1211 25.3474 43.2629 25.252 43.4273 25.1843C43.5917 25.1153 43.7736 25.0808 43.9731 25.0808C44.1713 25.0808 44.347 25.1134 44.5001 25.1786C44.6544 25.2439 44.7855 25.3292 44.8934 25.4346L44.724 25.6698C44.714 25.6849 44.7008 25.6981 44.6845 25.7094C44.6695 25.7207 44.6481 25.7263 44.6205 25.7263C44.6017 25.7263 44.5823 25.7213 44.5622 25.7112C44.5421 25.7 44.5201 25.6868 44.4963 25.6717C44.4725 25.6554 44.4449 25.6378 44.4135 25.619C44.3821 25.6002 44.3457 25.5833 44.3043 25.5682C44.2629 25.5519 44.2146 25.5387 44.1594 25.5287C44.1055 25.5174 44.0427 25.5117 43.9712 25.5117C43.8495 25.5117 43.7378 25.5337 43.6362 25.5776C43.5358 25.6203 43.4493 25.683 43.3765 25.7658C43.3037 25.8474 43.2472 25.9478 43.2071 26.067C43.1669 26.1849 43.1469 26.3198 43.1469 26.4716C43.1469 26.6247 43.1682 26.7608 43.2109 26.88C43.2548 26.9992 43.3137 27.0996 43.3878 27.1811C43.4618 27.2627 43.549 27.3254 43.6494 27.3693C43.7498 27.412 43.8577 27.4333 43.9731 27.4333C44.0421 27.4333 44.1042 27.4296 44.1594 27.422C44.2159 27.4145 44.2673 27.4026 44.3137 27.3863C44.3614 27.37 44.406 27.3493 44.4474 27.3242C44.49 27.2978 44.5321 27.2658 44.5735 27.2282C44.586 27.2169 44.5992 27.2081 44.613 27.2018C44.6268 27.1943 44.6412 27.1906 44.6563 27.1906ZM47.0861 27.1906C47.1137 27.1906 47.1381 27.2012 47.1595 27.2225L47.359 27.439C47.2485 27.5757 47.1124 27.6805 46.9506 27.7533C46.7899 27.8261 46.5967 27.8624 46.3709 27.8624C46.1689 27.8624 45.9869 27.8279 45.8251 27.7589C45.6645 27.6899 45.5271 27.5939 45.4129 27.471C45.2987 27.348 45.2109 27.2012 45.1494 27.0306C45.0892 26.8599 45.0591 26.6736 45.0591 26.4716C45.0591 26.2671 45.0917 26.0801 45.1569 25.9107C45.2222 25.7401 45.3138 25.5933 45.4317 25.4703C45.5509 25.3474 45.6927 25.252 45.8571 25.1843C46.0214 25.1153 46.2034 25.0808 46.4029 25.0808C46.6011 25.0808 46.7768 25.1134 46.9298 25.1786C47.0842 25.2439 47.2153 25.3292 47.3232 25.4346L47.1538 25.6698C47.1438 25.6849 47.1306 25.6981 47.1143 25.7094C47.0992 25.7207 47.0779 25.7263 47.0503 25.7263C47.0315 25.7263 47.012 25.7213 46.992 25.7112C46.9719 25.7 46.9499 25.6868 46.9261 25.6717C46.9022 25.6554 46.8746 25.6378 46.8433 25.619C46.8119 25.6002 46.7755 25.5833 46.7341 25.5682C46.6927 25.5519 46.6444 25.5387 46.5892 25.5287C46.5352 25.5174 46.4725 25.5117 46.401 25.5117C46.2793 25.5117 46.1676 25.5337 46.066 25.5776C45.9656 25.6203 45.879 25.683 45.8063 25.7658C45.7335 25.8474 45.677 25.9478 45.6369 26.067C45.5967 26.1849 45.5766 26.3198 45.5766 26.4716C45.5766 26.6247 45.598 26.7608 45.6406 26.88C45.6845 26.9992 45.7435 27.0996 45.8175 27.1811C45.8916 27.2627 45.9788 27.3254 46.0792 27.3693C46.1795 27.412 46.2874 27.4333 46.4029 27.4333C46.4719 27.4333 46.534 27.4296 46.5892 27.422C46.6457 27.4145 46.6971 27.4026 46.7435 27.3863C46.7912 27.37 46.8357 27.3493 46.8772 27.3242C46.9198 27.2978 46.9618 27.2658 47.0032 27.2282C47.0158 27.2169 47.029 27.2081 47.0428 27.2018C47.0566 27.1943 47.071 27.1906 47.0861 27.1906ZM50.2423 26.4716C50.2423 26.6711 50.2091 26.8562 50.1426 27.0268C50.0773 27.1962 49.9845 27.343 49.864 27.4672C49.7436 27.5914 49.5986 27.6887 49.4293 27.7589C49.2599 27.8279 49.0717 27.8624 48.8646 27.8624C48.6589 27.8624 48.4713 27.8279 48.3019 27.7589C48.1325 27.6887 47.987 27.5914 47.8653 27.4672C47.7448 27.343 47.6513 27.1962 47.5848 27.0268C47.5183 26.8562 47.4851 26.6711 47.4851 26.4716C47.4851 26.2721 47.5183 26.0877 47.5848 25.9183C47.6513 25.7476 47.7448 25.6002 47.8653 25.476C47.987 25.3518 48.1325 25.2552 48.3019 25.1862C48.4713 25.1159 48.6589 25.0808 48.8646 25.0808C49.0027 25.0808 49.1325 25.0971 49.2542 25.1297C49.3759 25.1611 49.4876 25.2062 49.5892 25.2652C49.6909 25.3229 49.7818 25.3938 49.8621 25.4779C49.9437 25.5607 50.0127 25.6535 50.0692 25.7564C50.1256 25.8593 50.1683 25.971 50.1971 26.0914C50.2273 26.2119 50.2423 26.3386 50.2423 26.4716ZM49.7247 26.4716C49.7247 26.3223 49.7047 26.1887 49.6645 26.0707C49.6244 25.9515 49.5673 25.8505 49.4933 25.7677C49.4192 25.6849 49.3289 25.6215 49.2222 25.5776C49.1168 25.5337 48.9976 25.5117 48.8646 25.5117C48.7316 25.5117 48.6118 25.5337 48.5052 25.5776C48.3998 25.6215 48.3094 25.6849 48.2341 25.7677C48.1601 25.8505 48.103 25.9515 48.0629 26.0707C48.0227 26.1887 48.0027 26.3223 48.0027 26.4716C48.0027 26.6209 48.0227 26.7552 48.0629 26.8744C48.103 26.9923 48.1601 27.0927 48.2341 27.1755C48.3094 27.2571 48.3998 27.3198 48.5052 27.3637C48.6118 27.4076 48.7316 27.4296 48.8646 27.4296C48.9976 27.4296 49.1168 27.4076 49.2222 27.3637C49.3289 27.3198 49.4192 27.2571 49.4933 27.1755C49.5673 27.0927 49.6244 26.9923 49.6645 26.8744C49.7047 26.7552 49.7247 26.6209 49.7247 26.4716ZM51.7823 27.4239C51.8802 27.4239 51.9674 27.4076 52.0439 27.375C52.1217 27.3424 52.1869 27.2966 52.2396 27.2376C52.2923 27.1786 52.3325 27.1071 52.3601 27.023C52.3889 26.939 52.4034 26.8449 52.4034 26.7407V25.1109H52.9096V26.7407C52.9096 26.9026 52.8833 27.0525 52.8306 27.1906C52.7792 27.3273 52.7045 27.4459 52.6066 27.5463C52.51 27.6454 52.3921 27.7232 52.2528 27.7796C52.1135 27.8348 51.9567 27.8624 51.7823 27.8624C51.6066 27.8624 51.4492 27.8348 51.3099 27.7796C51.1706 27.7232 51.052 27.6454 50.9542 27.5463C50.8576 27.4459 50.7829 27.3273 50.7302 27.1906C50.6788 27.0525 50.653 26.9026 50.653 26.7407V25.1109H51.1593V26.7389C51.1593 26.843 51.1731 26.9371 51.2007 27.0212C51.2296 27.1052 51.2704 27.1774 51.3231 27.2376C51.377 27.2966 51.4423 27.3424 51.5188 27.375C51.5966 27.4076 51.6844 27.4239 51.7823 27.4239ZM55.7749 25.1109V27.8323H55.5151C55.475 27.8323 55.4411 27.8261 55.4135 27.8135C55.3871 27.7997 55.3614 27.7771 55.3363 27.7458L53.9154 25.9314C53.9229 26.0143 53.9267 26.0908 53.9267 26.1611V27.8323H53.4806V25.1109H53.746C53.7673 25.1109 53.7855 25.1121 53.8006 25.1146C53.8169 25.1159 53.8307 25.1197 53.842 25.1259C53.8545 25.1309 53.8664 25.1391 53.8777 25.1504C53.889 25.1604 53.9016 25.1742 53.9154 25.1918L55.342 27.0136C55.3382 26.9697 55.3351 26.9264 55.3326 26.8838C55.3301 26.8411 55.3288 26.8016 55.3288 26.7652V25.1109H55.7749ZM58.2818 25.5268H57.4612V27.8323H56.9549V25.5268H56.1344V25.1109H58.2818V25.5268Z" fill="white" fill-opacity="0.39"/>
<path d="M23.585 59.7163C23.3191 59.7163 23.0466 59.6765 22.7674 59.5967C22.4948 59.5103 22.2555 59.384 22.0494 59.2178C21.9962 59.1712 21.953 59.1114 21.9198 59.0383C21.8865 58.9652 21.8699 58.8954 21.8699 58.8289C21.8699 58.7491 21.9032 58.6727 21.9696 58.5995C22.0428 58.5198 22.1358 58.4799 22.2488 58.4799C22.3353 58.4799 22.435 58.5231 22.548 58.6095C22.6942 58.7225 22.8571 58.8123 23.0366 58.8787C23.2161 58.9452 23.3956 58.9784 23.575 58.9784C23.9473 58.9784 24.2697 58.9086 24.5423 58.769C24.8148 58.6294 25.0242 58.4333 25.1705 58.1807C25.3167 57.9281 25.3898 57.6323 25.3898 57.2933C25.3898 56.9875 25.32 56.7216 25.1804 56.4956C25.0475 56.2629 24.858 56.0834 24.6121 55.9571C24.3728 55.8308 24.0969 55.7676 23.7844 55.7676C23.5518 55.7676 23.3424 55.8042 23.1562 55.8773C22.9768 55.9438 22.8172 56.0136 22.6776 56.0867C22.5447 56.1598 22.4283 56.1964 22.3286 56.1964C22.2023 56.1964 22.1059 56.1698 22.0394 56.1166C21.973 56.0568 21.9297 55.9837 21.9098 55.8973C21.8899 55.8108 21.8832 55.7311 21.8899 55.6579L22.2787 53.0753C22.2987 52.9889 22.3452 52.9125 22.4183 52.846C22.4915 52.7795 22.5812 52.7463 22.6876 52.7463H25.6491C25.7555 52.7463 25.8452 52.7828 25.9183 52.856C25.9915 52.9291 26.028 53.0222 26.028 53.1352C26.028 53.2415 25.9915 53.3313 25.9183 53.4044C25.8452 53.4709 25.7555 53.5041 25.6491 53.5041H22.887L22.9867 53.4144L22.6178 55.6679L22.4582 55.4585C22.5314 55.392 22.641 55.3256 22.7873 55.2591C22.9402 55.1926 23.113 55.1361 23.3058 55.0896C23.5052 55.043 23.708 55.0198 23.9141 55.0198C24.3462 55.0198 24.7317 55.1195 25.0708 55.3189C25.4164 55.5117 25.689 55.7776 25.8884 56.1166C26.0879 56.4557 26.1876 56.8446 26.1876 57.2833C26.1876 57.7686 26.0812 58.194 25.8685 58.5596C25.6558 58.9253 25.3533 59.2111 24.9611 59.4172C24.5755 59.6166 24.1168 59.7163 23.585 59.7163ZM28.6073 59.7064C28.5009 59.7064 28.4045 59.6731 28.3181 59.6067C28.2383 59.5335 28.1985 59.4405 28.1985 59.3275C28.1985 59.2676 28.2118 59.2078 28.2383 59.148L30.811 53.3146L30.9306 53.4941H27.7198C27.6135 53.4941 27.5237 53.4609 27.4506 53.3944C27.3775 53.3213 27.3409 53.2282 27.3409 53.1152C27.3409 53.0089 27.3775 52.9224 27.4506 52.856C27.5237 52.7828 27.6135 52.7463 27.7198 52.7463H31.3195C31.4392 52.7463 31.5356 52.7828 31.6087 52.856C31.6885 52.9291 31.7284 53.0222 31.7284 53.1352C31.7284 53.195 31.7151 53.2548 31.6885 53.3146L28.9862 59.4571C28.953 59.5369 28.8998 59.6 28.8267 59.6465C28.7602 59.6864 28.6871 59.7064 28.6073 59.7064ZM35.7009 56.1565L35.681 56.0169C35.9136 56.1166 36.123 56.2529 36.3092 56.4258C36.4953 56.5986 36.6415 56.798 36.7479 57.024C36.8609 57.2434 36.9174 57.4827 36.9174 57.742C36.9174 58.101 36.8177 58.4333 36.6183 58.7391C36.4255 59.0383 36.1596 59.2776 35.8206 59.4571C35.4882 59.6366 35.1159 59.7263 34.7038 59.7263C34.2916 59.7263 33.9193 59.6366 33.587 59.4571C33.2546 59.2776 32.9887 59.0383 32.7892 58.7391C32.5964 58.4333 32.5001 58.101 32.5001 57.742C32.5001 57.4428 32.5599 57.1803 32.6795 56.9542C32.8059 56.7282 32.9621 56.5354 33.1482 56.3759C33.341 56.2163 33.5404 56.09 33.7465 55.997L33.6966 56.1565C33.5238 56.0834 33.3576 55.977 33.1981 55.8374C33.0452 55.6912 32.9189 55.5183 32.8191 55.3189C32.7194 55.1128 32.6696 54.8802 32.6696 54.6209C32.6696 54.2619 32.7593 53.9362 32.9388 53.6437C33.1183 53.3512 33.3643 53.1219 33.6767 52.9557C33.9891 52.7828 34.3315 52.6964 34.7038 52.6964C35.0827 52.6964 35.425 52.7828 35.7308 52.9557C36.0366 53.1219 36.2792 53.3512 36.4587 53.6437C36.6449 53.9362 36.7379 54.2619 36.7379 54.6209C36.7379 54.8935 36.6848 55.1328 36.5784 55.3389C36.472 55.5383 36.3391 55.7078 36.1795 55.8474C36.0266 55.9804 35.8671 56.0834 35.7009 56.1565ZM33.4773 54.6309C33.4773 54.8702 33.5304 55.0796 33.6368 55.2591C33.7498 55.4386 33.8994 55.5815 34.0855 55.6879C34.2783 55.7876 34.4844 55.8374 34.7038 55.8374C34.9298 55.8374 35.1325 55.7876 35.312 55.6879C35.4982 55.5815 35.6477 55.4386 35.7607 55.2591C35.8737 55.0796 35.9302 54.8702 35.9302 54.6309C35.9302 54.2852 35.8139 54.0027 35.5812 53.7833C35.3552 53.5573 35.0627 53.4443 34.7038 53.4443C34.3448 53.4443 34.049 53.5573 33.8163 53.7833C33.5903 54.0027 33.4773 54.2852 33.4773 54.6309ZM34.7038 58.9784C35.1159 58.9784 35.4516 58.8588 35.7109 58.6195C35.9768 58.3802 36.1097 58.0843 36.1097 57.732C36.1097 57.4861 36.0466 57.27 35.9203 57.0839C35.794 56.8911 35.6245 56.7415 35.4117 56.6352C35.199 56.5221 34.963 56.4656 34.7038 56.4656C34.4511 56.4656 34.2185 56.5221 34.0058 56.6352C33.793 56.7415 33.6235 56.8911 33.4972 57.0839C33.3709 57.27 33.3077 57.4861 33.3077 57.732C33.3077 58.0843 33.4374 58.3802 33.6966 58.6195C33.9625 58.8588 34.2982 58.9784 34.7038 58.9784ZM40.1977 52.5768C40.5766 52.5768 40.909 52.6499 41.1949 52.7961C41.4874 52.9357 41.73 53.1285 41.9228 53.3745C42.1156 53.6204 42.2618 53.8963 42.3615 54.2021C42.4613 54.5079 42.5111 54.8237 42.5111 55.1494C42.5111 55.4353 42.4745 55.7543 42.4014 56.1067C42.3283 56.459 42.2153 56.818 42.0624 57.1836C41.9161 57.5492 41.7234 57.9015 41.484 58.2406C41.2447 58.5729 40.9589 58.8721 40.6265 59.138C40.2941 59.4039 39.9119 59.61 39.4798 59.7562C39.42 59.7762 39.3668 59.7861 39.3202 59.7861C39.2139 59.7861 39.1175 59.7529 39.0311 59.6864C38.9513 59.6199 38.9114 59.5202 38.9114 59.3873C38.9114 59.2942 38.9413 59.2144 39.0012 59.148C39.061 59.0748 39.1408 59.0217 39.2405 58.9884C39.5994 58.8555 39.9418 58.6494 40.2675 58.3702C40.5999 58.0843 40.8858 57.752 41.1251 57.373C41.371 56.9875 41.5339 56.5853 41.6137 56.1665L41.853 56.0867C41.7466 56.2662 41.607 56.4357 41.4342 56.5953C41.2614 56.7482 41.0586 56.8745 40.8259 56.9742C40.5999 57.0739 40.3473 57.1238 40.0681 57.1238C39.636 57.1238 39.2637 57.0207 38.9513 56.8146C38.6389 56.6086 38.3962 56.3327 38.2234 55.987C38.0505 55.6413 37.9641 55.2591 37.9641 54.8403C37.9641 54.4348 38.0605 54.0625 38.2533 53.7235C38.4527 53.3778 38.7219 53.1019 39.061 52.8958C39.4 52.6831 39.7789 52.5768 40.1977 52.5768ZM40.2077 53.3246C39.9351 53.3246 39.6892 53.3911 39.4698 53.524C39.2571 53.6504 39.0876 53.8298 38.9613 54.0625C38.835 54.2885 38.7718 54.5478 38.7718 54.8403C38.7718 55.1195 38.825 55.3754 38.9314 55.6081C39.0444 55.8408 39.2039 56.0269 39.41 56.1665C39.6227 56.2994 39.8786 56.3659 40.1778 56.3659C40.4902 56.3659 40.7595 56.2961 40.9855 56.1565C41.2115 56.0169 41.3843 55.8308 41.504 55.5981C41.6303 55.3588 41.6935 55.0995 41.6935 54.8203C41.6935 54.5478 41.6336 54.3018 41.514 54.0825C41.3943 53.8564 41.2215 53.6736 40.9954 53.534C40.7761 53.3944 40.5135 53.3246 40.2077 53.3246Z" fill="white"/>
<path d="M118.633 58.9286C118.739 58.9286 118.829 58.9652 118.902 59.0383C118.975 59.1114 119.012 59.2011 119.012 59.3075C119.012 59.4139 118.975 59.5036 118.902 59.5767C118.829 59.6432 118.739 59.6765 118.633 59.6765H115.013C114.893 59.6765 114.794 59.6432 114.714 59.5767C114.641 59.5036 114.604 59.4072 114.604 59.2876C114.604 59.1812 114.644 59.0848 114.724 58.9984L116.977 56.5354C117.31 56.1765 117.559 55.8408 117.725 55.5283C117.898 55.2092 117.985 54.9267 117.985 54.6807C117.985 54.2752 117.862 53.9528 117.616 53.7135C117.376 53.4675 117.054 53.3446 116.648 53.3446C116.469 53.3446 116.289 53.3844 116.11 53.4642C115.93 53.5373 115.768 53.6404 115.621 53.7733C115.475 53.8996 115.355 54.0426 115.262 54.2021C115.209 54.2885 115.153 54.345 115.093 54.3716C115.04 54.3916 114.983 54.4015 114.923 54.4015C114.824 54.4015 114.734 54.3683 114.654 54.3018C114.574 54.2287 114.534 54.1456 114.534 54.0525C114.534 53.9794 114.554 53.9129 114.594 53.8531C114.634 53.7866 114.687 53.7135 114.754 53.6337C114.893 53.441 115.066 53.2681 115.272 53.1152C115.485 52.9557 115.714 52.8294 115.96 52.7363C116.213 52.6432 116.459 52.5967 116.698 52.5967C117.124 52.5967 117.493 52.6798 117.805 52.846C118.124 53.0122 118.37 53.2482 118.543 53.554C118.716 53.8598 118.802 54.2187 118.802 54.6309C118.802 54.9832 118.696 55.3721 118.483 55.7975C118.27 56.223 117.958 56.6551 117.546 57.0938L115.801 59.0283L115.701 58.9286H118.633ZM123.226 56.1565L123.206 56.0169C123.438 56.1166 123.648 56.2529 123.834 56.4258C124.02 56.5986 124.166 56.798 124.273 57.024C124.386 57.2434 124.442 57.4827 124.442 57.742C124.442 58.101 124.342 58.4333 124.143 58.7391C123.95 59.0383 123.684 59.2776 123.345 59.4571C123.013 59.6366 122.641 59.7263 122.228 59.7263C121.816 59.7263 121.444 59.6366 121.112 59.4571C120.779 59.2776 120.513 59.0383 120.314 58.7391C120.121 58.4333 120.025 58.101 120.025 57.742C120.025 57.4428 120.085 57.1803 120.204 56.9542C120.33 56.7282 120.487 56.5354 120.673 56.3759C120.866 56.2163 121.065 56.09 121.271 55.997L121.221 56.1565C121.048 56.0834 120.882 55.977 120.723 55.8374C120.57 55.6912 120.443 55.5183 120.344 55.3189C120.244 55.1128 120.194 54.8802 120.194 54.6209C120.194 54.2619 120.284 53.9362 120.463 53.6437C120.643 53.3512 120.889 53.1219 121.201 52.9557C121.514 52.7828 121.856 52.6964 122.228 52.6964C122.607 52.6964 122.95 52.7828 123.255 52.9557C123.561 53.1219 123.804 53.3512 123.983 53.6437C124.17 53.9362 124.263 54.2619 124.263 54.6209C124.263 54.8935 124.209 55.1328 124.103 55.3389C123.997 55.5383 123.864 55.7078 123.704 55.8474C123.551 55.9804 123.392 56.0834 123.226 56.1565ZM121.002 54.6309C121.002 54.8702 121.055 55.0796 121.161 55.2591C121.274 55.4386 121.424 55.5815 121.61 55.6879C121.803 55.7876 122.009 55.8374 122.228 55.8374C122.454 55.8374 122.657 55.7876 122.837 55.6879C123.023 55.5815 123.172 55.4386 123.285 55.2591C123.398 55.0796 123.455 54.8702 123.455 54.6309C123.455 54.2852 123.339 54.0027 123.106 53.7833C122.88 53.5573 122.587 53.4443 122.228 53.4443C121.869 53.4443 121.574 53.5573 121.341 53.7833C121.115 54.0027 121.002 54.2852 121.002 54.6309ZM122.228 58.9784C122.641 58.9784 122.976 58.8588 123.236 58.6195C123.501 58.3802 123.634 58.0843 123.634 57.732C123.634 57.4861 123.571 57.27 123.445 57.0839C123.319 56.8911 123.149 56.7415 122.936 56.6352C122.724 56.5221 122.488 56.4656 122.228 56.4656C121.976 56.4656 121.743 56.5221 121.53 56.6352C121.318 56.7415 121.148 56.8911 121.022 57.0839C120.896 57.27 120.832 57.4861 120.832 57.732C120.832 58.0843 120.962 58.3802 121.221 58.6195C121.487 58.8588 121.823 58.9784 122.228 58.9784ZM128.68 59.6765C128.567 59.6765 128.47 59.6366 128.39 59.5568C128.317 59.477 128.281 59.3806 128.281 59.2676V53.8132L128.44 53.8731L126.057 56.9842L126.017 56.8645H129.747C129.853 56.8645 129.943 56.9011 130.016 56.9742C130.089 57.0473 130.125 57.137 130.125 57.2434C130.125 57.3431 130.089 57.4295 130.016 57.5027C129.943 57.5691 129.853 57.6024 129.747 57.6024H125.469C125.369 57.6024 125.276 57.5625 125.19 57.4827C125.11 57.403 125.07 57.3099 125.07 57.2035C125.07 57.1038 125.103 57.0174 125.17 56.9443L128.351 52.856C128.397 52.7961 128.45 52.7562 128.51 52.7363C128.57 52.7097 128.63 52.6964 128.69 52.6964C128.803 52.6964 128.896 52.7363 128.969 52.8161C129.042 52.8892 129.078 52.9823 129.078 53.0953V59.2676C129.078 59.3806 129.039 59.477 128.959 59.5568C128.886 59.6366 128.793 59.6765 128.68 59.6765ZM131.936 59.7064C131.83 59.7064 131.734 59.6731 131.647 59.6067C131.567 59.5335 131.527 59.4405 131.527 59.3275C131.527 59.2676 131.541 59.2078 131.567 59.148L134.14 53.3146L134.26 53.4941H131.049C130.943 53.4941 130.853 53.4609 130.78 53.3944C130.707 53.3213 130.67 53.2282 130.67 53.1152C130.67 53.0089 130.707 52.9224 130.78 52.856C130.853 52.7828 130.943 52.7463 131.049 52.7463H134.649C134.768 52.7463 134.865 52.7828 134.938 52.856C135.018 52.9291 135.057 53.0222 135.057 53.1352C135.057 53.195 135.044 53.2548 135.018 53.3146L132.315 59.4571C132.282 59.5369 132.229 59.6 132.156 59.6465C132.089 59.6864 132.016 59.7064 131.936 59.7064Z" fill="white"/>
<path d="M52.7765 55.7477C52.7034 55.7477 52.6436 55.7211 52.597 55.6679C52.5505 55.6081 52.5305 55.5383 52.5372 55.4585L52.617 54.581C52.6236 54.5611 52.6203 54.5478 52.607 54.5411C52.5937 54.5345 52.5771 54.5378 52.5571 54.5511L51.8292 55.0597C51.7627 55.1062 51.6929 55.1228 51.6198 55.1095C51.5533 55.0962 51.4968 55.053 51.4503 54.9799C51.4104 54.9001 51.4038 54.827 51.4304 54.7605C51.4569 54.694 51.5068 54.6475 51.5799 54.6209L52.3876 54.242C52.4076 54.2353 52.4175 54.2254 52.4175 54.2121C52.4175 54.1988 52.4076 54.1888 52.3876 54.1822L51.5799 53.8033C51.5002 53.7634 51.4503 53.7102 51.4304 53.6437C51.4104 53.5706 51.4204 53.4975 51.4603 53.4243C51.5002 53.3579 51.5533 53.318 51.6198 53.3047C51.6929 53.2914 51.7627 53.308 51.8292 53.3545L52.5571 53.8731C52.5771 53.8797 52.5937 53.8797 52.607 53.8731C52.6203 53.8664 52.6236 53.8531 52.617 53.8332L52.5372 52.9557C52.5305 52.8759 52.5505 52.8094 52.597 52.7562C52.6502 52.7031 52.7167 52.6765 52.7964 52.6765C52.8696 52.6765 52.9294 52.7031 52.9759 52.7562C53.0291 52.8094 53.0491 52.8759 53.0358 52.9557L52.966 53.8332C52.9593 53.8531 52.9626 53.8664 52.9759 53.8731C52.9892 53.8797 53.0025 53.8797 53.0158 53.8731L53.7537 53.3545C53.8202 53.308 53.89 53.2947 53.9631 53.3146C54.0362 53.3279 54.0894 53.3678 54.1227 53.4343C54.1692 53.5141 54.1792 53.5872 54.1526 53.6537C54.126 53.7202 54.0761 53.77 54.003 53.8033L53.1853 54.1822C53.1654 54.1888 53.1554 54.1988 53.1554 54.2121C53.1554 54.2254 53.1654 54.2353 53.1853 54.242L54.003 54.6209C54.0761 54.6542 54.126 54.7073 54.1526 54.7805C54.1792 54.8469 54.1692 54.9134 54.1227 54.9799C54.0894 55.053 54.0362 55.0962 53.9631 55.1095C53.89 55.1228 53.8202 55.1095 53.7537 55.0696L53.0158 54.5511C53.0025 54.5378 52.9892 54.5345 52.9759 54.5411C52.9626 54.5478 52.9593 54.5611 52.966 54.581L53.0358 55.4585C53.0491 55.5383 53.0291 55.6081 52.9759 55.6679C52.9228 55.7211 52.8563 55.7477 52.7765 55.7477ZM58.7847 55.7477C58.7116 55.7477 58.6518 55.7211 58.6052 55.6679C58.5587 55.6081 58.5387 55.5383 58.5454 55.4585L58.6252 54.581C58.6318 54.5611 58.6285 54.5478 58.6152 54.5411C58.6019 54.5345 58.5853 54.5378 58.5653 54.5511L57.8374 55.0597C57.7709 55.1062 57.7011 55.1228 57.628 55.1095C57.5615 55.0962 57.505 55.053 57.4585 54.9799C57.4186 54.9001 57.412 54.827 57.4386 54.7605C57.4652 54.694 57.515 54.6475 57.5881 54.6209L58.3958 54.242C58.4158 54.2353 58.4257 54.2254 58.4257 54.2121C58.4257 54.1988 58.4158 54.1888 58.3958 54.1822L57.5881 53.8033C57.5084 53.7634 57.4585 53.7102 57.4386 53.6437C57.4186 53.5706 57.4286 53.4975 57.4685 53.4243C57.5084 53.3579 57.5615 53.318 57.628 53.3047C57.7011 53.2914 57.7709 53.308 57.8374 53.3545L58.5653 53.8731C58.5853 53.8797 58.6019 53.8797 58.6152 53.8731C58.6285 53.8664 58.6318 53.8531 58.6252 53.8332L58.5454 52.9557C58.5387 52.8759 58.5587 52.8094 58.6052 52.7562C58.6584 52.7031 58.7249 52.6765 58.8047 52.6765C58.8778 52.6765 58.9376 52.7031 58.9841 52.7562C59.0373 52.8094 59.0573 52.8759 59.044 52.9557L58.9742 53.8332C58.9675 53.8531 58.9708 53.8664 58.9841 53.8731C58.9974 53.8797 59.0107 53.8797 59.024 53.8731L59.7619 53.3545C59.8284 53.308 59.8982 53.2947 59.9713 53.3146C60.0444 53.3279 60.0976 53.3678 60.1309 53.4343C60.1774 53.5141 60.1874 53.5872 60.1608 53.6537C60.1342 53.7202 60.0843 53.77 60.0112 53.8033L59.1935 54.1822C59.1736 54.1888 59.1636 54.1988 59.1636 54.2121C59.1636 54.2254 59.1736 54.2353 59.1935 54.242L60.0112 54.6209C60.0843 54.6542 60.1342 54.7073 60.1608 54.7805C60.1874 54.8469 60.1774 54.9134 60.1309 54.9799C60.0976 55.053 60.0444 55.0962 59.9713 55.1095C59.8982 55.1228 59.8284 55.1095 59.7619 55.0696L59.024 54.5511C59.0107 54.5378 58.9974 54.5345 58.9841 54.5411C58.9708 54.5478 58.9675 54.5611 58.9742 54.581L59.044 55.4585C59.0573 55.5383 59.0373 55.6081 58.9841 55.6679C58.931 55.7211 58.8645 55.7477 58.7847 55.7477ZM64.7929 55.7477C64.7198 55.7477 64.66 55.7211 64.6134 55.6679C64.5669 55.6081 64.547 55.5383 64.5536 55.4585L64.6334 54.581C64.64 54.5611 64.6367 54.5478 64.6234 54.5411C64.6101 54.5345 64.5935 54.5378 64.5735 54.5511L63.8456 55.0597C63.7791 55.1062 63.7093 55.1228 63.6362 55.1095C63.5697 55.0962 63.5132 55.053 63.4667 54.9799C63.4268 54.9001 63.4202 54.827 63.4468 54.7605C63.4734 54.694 63.5232 54.6475 63.5963 54.6209L64.404 54.242C64.424 54.2353 64.4339 54.2254 64.4339 54.2121C64.4339 54.1988 64.424 54.1888 64.404 54.1822L63.5963 53.8033C63.5166 53.7634 63.4667 53.7102 63.4468 53.6437C63.4268 53.5706 63.4368 53.4975 63.4767 53.4243C63.5166 53.3579 63.5697 53.318 63.6362 53.3047C63.7093 53.2914 63.7791 53.308 63.8456 53.3545L64.5735 53.8731C64.5935 53.8797 64.6101 53.8797 64.6234 53.8731C64.6367 53.8664 64.64 53.8531 64.6334 53.8332L64.5536 52.9557C64.547 52.8759 64.5669 52.8094 64.6134 52.7562C64.6666 52.7031 64.7331 52.6765 64.8129 52.6765C64.886 52.6765 64.9458 52.7031 64.9923 52.7562C65.0455 52.8094 65.0655 52.8759 65.0522 52.9557L64.9824 53.8332C64.9757 53.8531 64.979 53.8664 64.9923 53.8731C65.0056 53.8797 65.0189 53.8797 65.0322 53.8731L65.7701 53.3545C65.8366 53.308 65.9064 53.2947 65.9795 53.3146C66.0526 53.3279 66.1058 53.3678 66.1391 53.4343C66.1856 53.5141 66.1956 53.5872 66.169 53.6537C66.1424 53.7202 66.0925 53.77 66.0194 53.8033L65.2017 54.1822C65.1818 54.1888 65.1718 54.1988 65.1718 54.2121C65.1718 54.2254 65.1818 54.2353 65.2017 54.242L66.0194 54.6209C66.0925 54.6542 66.1424 54.7073 66.169 54.7805C66.1956 54.8469 66.1856 54.9134 66.1391 54.9799C66.1058 55.053 66.0526 55.0962 65.9795 55.1095C65.9064 55.1228 65.8366 55.1095 65.7701 55.0696L65.0322 54.5511C65.0189 54.5378 65.0056 54.5345 64.9923 54.5411C64.979 54.5478 64.9757 54.5611 64.9824 54.581L65.0522 55.4585C65.0655 55.5383 65.0455 55.6081 64.9923 55.6679C64.9392 55.7211 64.8727 55.7477 64.7929 55.7477ZM70.8011 55.7477C70.728 55.7477 70.6682 55.7211 70.6216 55.6679C70.5751 55.6081 70.5552 55.5383 70.5618 55.4585L70.6416 54.581C70.6482 54.5611 70.6449 54.5478 70.6316 54.5411C70.6183 54.5345 70.6017 54.5378 70.5817 54.5511L69.8538 55.0597C69.7874 55.1062 69.7176 55.1228 69.6444 55.1095C69.578 55.0962 69.5214 55.053 69.4749 54.9799C69.435 54.9001 69.4284 54.827 69.455 54.7605C69.4816 54.694 69.5314 54.6475 69.6045 54.6209L70.4122 54.242C70.4322 54.2353 70.4421 54.2254 70.4421 54.2121C70.4421 54.1988 70.4322 54.1888 70.4122 54.1822L69.6045 53.8033C69.5248 53.7634 69.4749 53.7102 69.455 53.6437C69.435 53.5706 69.445 53.4975 69.4849 53.4243C69.5248 53.3579 69.578 53.318 69.6444 53.3047C69.7176 53.2914 69.7874 53.308 69.8538 53.3545L70.5817 53.8731C70.6017 53.8797 70.6183 53.8797 70.6316 53.8731C70.6449 53.8664 70.6482 53.8531 70.6416 53.8332L70.5618 52.9557C70.5552 52.8759 70.5751 52.8094 70.6216 52.7562C70.6748 52.7031 70.7413 52.6765 70.8211 52.6765C70.8942 52.6765 70.954 52.7031 71.0006 52.7562C71.0537 52.8094 71.0737 52.8759 71.0604 52.9557L70.9906 53.8332C70.9839 53.8531 70.9873 53.8664 71.0006 53.8731C71.0138 53.8797 71.0271 53.8797 71.0404 53.8731L71.7783 53.3545C71.8448 53.308 71.9146 53.2947 71.9877 53.3146C72.0609 53.3279 72.114 53.3678 72.1473 53.4343C72.1938 53.5141 72.2038 53.5872 72.1772 53.6537C72.1506 53.7202 72.1007 53.77 72.0276 53.8033L71.21 54.1822C71.19 54.1888 71.18 54.1988 71.18 54.2121C71.18 54.2254 71.19 54.2353 71.21 54.242L72.0276 54.6209C72.1007 54.6542 72.1506 54.7073 72.1772 54.7805C72.2038 54.8469 72.1938 54.9134 72.1473 54.9799C72.114 55.053 72.0609 55.0962 71.9877 55.1095C71.9146 55.1228 71.8448 55.1095 71.7783 55.0696L71.0404 54.5511C71.0271 54.5378 71.0138 54.5345 71.0006 54.5411C70.9873 54.5478 70.9839 54.5611 70.9906 54.581L71.0604 55.4585C71.0737 55.5383 71.0537 55.6081 71.0006 55.6679C70.9474 55.7211 70.8809 55.7477 70.8011 55.7477Z" fill="white"/>
<path d="M86.1495 55.7477C86.0764 55.7477 86.0165 55.7211 85.97 55.6679C85.9235 55.6081 85.9035 55.5383 85.9102 55.4585L85.9899 54.581C85.9966 54.5611 85.9933 54.5478 85.98 54.5411C85.9667 54.5345 85.9501 54.5378 85.9301 54.5511L85.2022 55.0597C85.1357 55.1062 85.0659 55.1228 84.9928 55.1095C84.9263 55.0962 84.8698 55.053 84.8233 54.9799C84.7834 54.9001 84.7768 54.827 84.8033 54.7605C84.8299 54.694 84.8798 54.6475 84.9529 54.6209L85.7606 54.242C85.7805 54.2353 85.7905 54.2254 85.7905 54.2121C85.7905 54.1988 85.7805 54.1888 85.7606 54.1822L84.9529 53.8033C84.8731 53.7634 84.8233 53.7102 84.8033 53.6437C84.7834 53.5706 84.7934 53.4975 84.8333 53.4243C84.8731 53.3579 84.9263 53.318 84.9928 53.3047C85.0659 53.2914 85.1357 53.308 85.2022 53.3545L85.9301 53.8731C85.9501 53.8797 85.9667 53.8797 85.98 53.8731C85.9933 53.8664 85.9966 53.8531 85.9899 53.8332L85.9102 52.9557C85.9035 52.8759 85.9235 52.8094 85.97 52.7562C86.0232 52.7031 86.0897 52.6765 86.1694 52.6765C86.2426 52.6765 86.3024 52.7031 86.3489 52.7562C86.4021 52.8094 86.422 52.8759 86.4087 52.9557L86.3389 53.8332C86.3323 53.8531 86.3356 53.8664 86.3489 53.8731C86.3622 53.8797 86.3755 53.8797 86.3888 53.8731L87.1267 53.3545C87.1932 53.308 87.263 53.2947 87.3361 53.3146C87.4092 53.3279 87.4624 53.3678 87.4956 53.4343C87.5422 53.5141 87.5521 53.5872 87.5256 53.6537C87.499 53.7202 87.4491 53.77 87.376 53.8033L86.5583 54.1822C86.5384 54.1888 86.5284 54.1988 86.5284 54.2121C86.5284 54.2254 86.5384 54.2353 86.5583 54.242L87.376 54.6209C87.4491 54.6542 87.499 54.7073 87.5256 54.7805C87.5521 54.8469 87.5422 54.9134 87.4956 54.9799C87.4624 55.053 87.4092 55.0962 87.3361 55.1095C87.263 55.1228 87.1932 55.1095 87.1267 55.0696L86.3888 54.5511C86.3755 54.5378 86.3622 54.5345 86.3489 54.5411C86.3356 54.5478 86.3323 54.5611 86.3389 54.581L86.4087 55.4585C86.422 55.5383 86.4021 55.6081 86.3489 55.6679C86.2957 55.7211 86.2293 55.7477 86.1495 55.7477ZM92.1577 55.7477C92.0846 55.7477 92.0247 55.7211 91.9782 55.6679C91.9317 55.6081 91.9117 55.5383 91.9184 55.4585L91.9982 54.581C92.0048 54.5611 92.0015 54.5478 91.9882 54.5411C91.9749 54.5345 91.9583 54.5378 91.9383 54.5511L91.2104 55.0597C91.1439 55.1062 91.0741 55.1228 91.001 55.1095C90.9345 55.0962 90.878 55.053 90.8315 54.9799C90.7916 54.9001 90.785 54.827 90.8115 54.7605C90.8381 54.694 90.888 54.6475 90.9611 54.6209L91.7688 54.242C91.7888 54.2353 91.7987 54.2254 91.7987 54.2121C91.7987 54.1988 91.7888 54.1888 91.7688 54.1822L90.9611 53.8033C90.8813 53.7634 90.8315 53.7102 90.8115 53.6437C90.7916 53.5706 90.8016 53.4975 90.8415 53.4243C90.8813 53.3579 90.9345 53.318 91.001 53.3047C91.0741 53.2914 91.1439 53.308 91.2104 53.3545L91.9383 53.8731C91.9583 53.8797 91.9749 53.8797 91.9882 53.8731C92.0015 53.8664 92.0048 53.8531 91.9982 53.8332L91.9184 52.9557C91.9117 52.8759 91.9317 52.8094 91.9782 52.7562C92.0314 52.7031 92.0979 52.6765 92.1776 52.6765C92.2508 52.6765 92.3106 52.7031 92.3571 52.7562C92.4103 52.8094 92.4302 52.8759 92.417 52.9557L92.3472 53.8332C92.3405 53.8531 92.3438 53.8664 92.3571 53.8731C92.3704 53.8797 92.3837 53.8797 92.397 53.8731L93.1349 53.3545C93.2014 53.308 93.2712 53.2947 93.3443 53.3146C93.4174 53.3279 93.4706 53.3678 93.5038 53.4343C93.5504 53.5141 93.5604 53.5872 93.5338 53.6537C93.5072 53.7202 93.4573 53.77 93.3842 53.8033L92.5665 54.1822C92.5466 54.1888 92.5366 54.1988 92.5366 54.2121C92.5366 54.2254 92.5466 54.2353 92.5665 54.242L93.3842 54.6209C93.4573 54.6542 93.5072 54.7073 93.5338 54.7805C93.5604 54.8469 93.5504 54.9134 93.5038 54.9799C93.4706 55.053 93.4174 55.0962 93.3443 55.1095C93.2712 55.1228 93.2014 55.1095 93.1349 55.0696L92.397 54.5511C92.3837 54.5378 92.3704 54.5345 92.3571 54.5411C92.3438 54.5478 92.3405 54.5611 92.3472 54.581L92.417 55.4585C92.4302 55.5383 92.4103 55.6081 92.3571 55.6679C92.3039 55.7211 92.2375 55.7477 92.1577 55.7477ZM98.1659 55.7477C98.0928 55.7477 98.0329 55.7211 97.9864 55.6679C97.9399 55.6081 97.9199 55.5383 97.9266 55.4585L98.0064 54.581C98.013 54.5611 98.0097 54.5478 97.9964 54.5411C97.9831 54.5345 97.9665 54.5378 97.9465 54.5511L97.2186 55.0597C97.1521 55.1062 97.0823 55.1228 97.0092 55.1095C96.9427 55.0962 96.8862 55.053 96.8397 54.9799C96.7998 54.9001 96.7932 54.827 96.8198 54.7605C96.8463 54.694 96.8962 54.6475 96.9693 54.6209L97.777 54.242C97.797 54.2353 97.8069 54.2254 97.8069 54.2121C97.8069 54.1988 97.797 54.1888 97.777 54.1822L96.9693 53.8033C96.8896 53.7634 96.8397 53.7102 96.8198 53.6437C96.7998 53.5706 96.8098 53.4975 96.8497 53.4243C96.8896 53.3579 96.9427 53.318 97.0092 53.3047C97.0823 53.2914 97.1521 53.308 97.2186 53.3545L97.9465 53.8731C97.9665 53.8797 97.9831 53.8797 97.9964 53.8731C98.0097 53.8664 98.013 53.8531 98.0064 53.8332L97.9266 52.9557C97.9199 52.8759 97.9399 52.8094 97.9864 52.7562C98.0396 52.7031 98.1061 52.6765 98.1858 52.6765C98.259 52.6765 98.3188 52.7031 98.3653 52.7562C98.4185 52.8094 98.4385 52.8759 98.4252 52.9557L98.3554 53.8332C98.3487 53.8531 98.352 53.8664 98.3653 53.8731C98.3786 53.8797 98.3919 53.8797 98.4052 53.8731L99.1431 53.3545C99.2096 53.308 99.2794 53.2947 99.3525 53.3146C99.4256 53.3279 99.4788 53.3678 99.5121 53.4343C99.5586 53.5141 99.5686 53.5872 99.542 53.6537C99.5154 53.7202 99.4655 53.77 99.3924 53.8033L98.5747 54.1822C98.5548 54.1888 98.5448 54.1988 98.5448 54.2121C98.5448 54.2254 98.5548 54.2353 98.5747 54.242L99.3924 54.6209C99.4655 54.6542 99.5154 54.7073 99.542 54.7805C99.5686 54.8469 99.5586 54.9134 99.5121 54.9799C99.4788 55.053 99.4256 55.0962 99.3525 55.1095C99.2794 55.1228 99.2096 55.1095 99.1431 55.0696L98.4052 54.5511C98.3919 54.5378 98.3786 54.5345 98.3653 54.5411C98.352 54.5478 98.3487 54.5611 98.3554 54.581L98.4252 55.4585C98.4385 55.5383 98.4185 55.6081 98.3653 55.6679C98.3121 55.7211 98.2457 55.7477 98.1659 55.7477ZM104.174 55.7477C104.101 55.7477 104.041 55.7211 103.995 55.6679C103.948 55.6081 103.928 55.5383 103.935 55.4585L104.015 54.581C104.021 54.5611 104.018 54.5478 104.005 54.5411C103.991 54.5345 103.975 54.5378 103.955 54.5511L103.227 55.0597C103.16 55.1062 103.091 55.1228 103.017 55.1095C102.951 55.0962 102.894 55.053 102.848 54.9799C102.808 54.9001 102.801 54.827 102.828 54.7605C102.855 54.694 102.904 54.6475 102.978 54.6209L103.785 54.242C103.805 54.2353 103.815 54.2254 103.815 54.2121C103.815 54.1988 103.805 54.1888 103.785 54.1822L102.978 53.8033C102.898 53.7634 102.848 53.7102 102.828 53.6437C102.808 53.5706 102.818 53.4975 102.858 53.4243C102.898 53.3579 102.951 53.318 103.017 53.3047C103.091 53.2914 103.16 53.308 103.227 53.3545L103.955 53.8731C103.975 53.8797 103.991 53.8797 104.005 53.8731C104.018 53.8664 104.021 53.8531 104.015 53.8332L103.935 52.9557C103.928 52.8759 103.948 52.8094 103.995 52.7562C104.048 52.7031 104.114 52.6765 104.194 52.6765C104.267 52.6765 104.327 52.7031 104.374 52.7562C104.427 52.8094 104.447 52.8759 104.433 52.9557L104.364 53.8332C104.357 53.8531 104.36 53.8664 104.374 53.8731C104.387 53.8797 104.4 53.8797 104.413 53.8731L105.151 53.3545C105.218 53.308 105.288 53.2947 105.361 53.3146C105.434 53.3279 105.487 53.3678 105.52 53.4343C105.567 53.5141 105.577 53.5872 105.55 53.6537C105.524 53.7202 105.474 53.77 105.401 53.8033L104.583 54.1822C104.563 54.1888 104.553 54.1988 104.553 54.2121C104.553 54.2254 104.563 54.2353 104.583 54.242L105.401 54.6209C105.474 54.6542 105.524 54.7073 105.55 54.7805C105.577 54.8469 105.567 54.9134 105.52 54.9799C105.487 55.053 105.434 55.0962 105.361 55.1095C105.288 55.1228 105.218 55.1095 105.151 55.0696L104.413 54.5511C104.4 54.5378 104.387 54.5345 104.374 54.5411C104.36 54.5478 104.357 54.5611 104.364 54.581L104.433 55.4585C104.447 55.5383 104.427 55.6081 104.374 55.6679C104.32 55.7211 104.254 55.7477 104.174 55.7477Z" fill="white"/>
<path d="M23.9705 87.9084L23.3471 86.2781C23.3022 86.1669 23.2573 86.0264 23.2124 85.8566C23.191 85.9405 23.1685 86.0186 23.1451 86.0908C23.1237 86.163 23.1022 86.2274 23.0807 86.2839L22.4602 87.9084H23.9705ZM25.2027 89.4742H24.7227C24.6681 89.4742 24.6232 89.4606 24.5881 89.4333C24.5529 89.4059 24.5276 89.3708 24.512 89.3279L24.1403 88.3533H22.2875L21.9158 89.3279C21.9022 89.365 21.8768 89.3991 21.8397 89.4303C21.8027 89.4596 21.7578 89.4742 21.7051 89.4742H21.2251L22.8993 85.2713H23.5285L25.2027 89.4742ZM26.1843 85.1542V89.4742H25.6106V85.1542H26.1843ZM27.5702 88.7425C27.6639 88.8655 27.7654 88.9513 27.8746 89.0001C27.9839 89.0489 28.1029 89.0733 28.2317 89.0733C28.4971 89.0733 28.701 88.9786 28.8434 88.7894C28.9878 88.6001 29.06 88.3142 29.06 87.9318C29.06 87.5786 28.9966 87.3201 28.8698 87.1562C28.7429 86.9903 28.5634 86.9074 28.3312 86.9074C28.1673 86.9074 28.0249 86.9444 27.9039 87.0186C27.7849 87.0927 27.6737 87.1981 27.5702 87.3347V88.7425ZM27.5702 86.9103C27.6932 86.7737 27.8327 86.6635 27.9888 86.5796C28.1449 86.4957 28.3224 86.4537 28.5215 86.4537C28.6951 86.4537 28.8512 86.4879 28.9898 86.5561C29.1303 86.6225 29.2493 86.7191 29.3468 86.8459C29.4444 86.9708 29.5195 87.123 29.5722 87.3025C29.6249 87.482 29.6512 87.6849 29.6512 87.9113C29.6512 88.1513 29.621 88.3698 29.5605 88.5669C29.502 88.764 29.4171 88.9328 29.3059 89.0733C29.1966 89.2138 29.0629 89.323 28.9049 89.4011C28.7468 89.4772 28.5693 89.5152 28.3722 89.5152C28.2766 89.5152 28.1888 89.5055 28.1088 89.486C28.0288 89.4684 27.9546 89.442 27.8863 89.4069C27.82 89.3718 27.7585 89.3289 27.7019 89.2781C27.6454 89.2274 27.5917 89.1698 27.541 89.1055L27.5146 89.3542C27.499 89.4342 27.4502 89.4742 27.3683 89.4742H26.9995V85.1542H27.5702V86.9103ZM32.2563 87.6567C32.2563 87.5435 32.2397 87.4391 32.2065 87.3435C32.1753 87.2479 32.1285 87.1649 32.0661 87.0947C32.0036 87.0244 31.9275 86.9698 31.8378 86.9308C31.748 86.8918 31.6446 86.8723 31.5275 86.8723C31.2875 86.8723 31.0982 86.9415 30.9597 87.0801C30.8231 87.2186 30.7363 87.4108 30.6992 87.6567H32.2563ZM32.7275 89.0498C32.6573 89.1318 32.5763 89.203 32.4846 89.2635C32.3929 89.322 32.2953 89.3699 32.1919 89.4069C32.0885 89.444 31.9812 89.4713 31.87 89.4889C31.7607 89.5064 31.6524 89.5152 31.5451 89.5152C31.3402 89.5152 31.1499 89.4811 30.9743 89.4128C30.8007 89.3425 30.6494 89.2411 30.5207 89.1084C30.3938 88.9737 30.2943 88.8079 30.2221 88.6108C30.1519 88.4118 30.1168 88.1835 30.1168 87.9259C30.1168 87.7191 30.149 87.5269 30.2133 87.3493C30.2777 87.1698 30.3694 87.0137 30.4885 86.881C30.6094 86.7483 30.7568 86.644 30.9304 86.5679C31.1041 86.4918 31.2992 86.4537 31.5158 86.4537C31.6973 86.4537 31.8641 86.484 32.0163 86.5444C32.1704 86.603 32.3031 86.6888 32.4144 86.802C32.5256 86.9152 32.6124 87.0547 32.6748 87.2205C32.7392 87.3864 32.7714 87.5757 32.7714 87.7884C32.7714 87.8762 32.7617 87.9357 32.7422 87.9669C32.7226 87.9962 32.6866 88.0108 32.6339 88.0108H30.6846C30.6904 88.1884 30.7158 88.3435 30.7607 88.4762C30.8055 88.6069 30.867 88.7162 30.9451 88.804C31.0251 88.8918 31.1197 88.9572 31.229 89.0001C31.3382 89.043 31.4602 89.0645 31.5948 89.0645C31.7217 89.0645 31.8309 89.0498 31.9226 89.0206C32.0163 88.9913 32.0963 88.9601 32.1626 88.9269C32.2309 88.8918 32.2875 88.8596 32.3324 88.8303C32.3792 88.8011 32.4202 88.7864 32.4553 88.7864C32.5022 88.7864 32.5383 88.804 32.5636 88.8391L32.7275 89.0498ZM33.9234 87.0713C34.019 86.8762 34.1342 86.723 34.2688 86.6118C34.4034 86.5005 34.5654 86.4449 34.7547 86.4449C34.8191 86.4449 34.8795 86.4527 34.9361 86.4683C34.9947 86.482 35.0454 86.5035 35.0883 86.5327L35.0503 86.963C35.0366 87.0157 35.0044 87.042 34.9537 87.042C34.9264 87.042 34.8854 87.0371 34.8308 87.0274C34.7761 87.0157 34.7176 87.0098 34.6551 87.0098C34.5634 87.0098 34.4825 87.0235 34.4122 87.0508C34.342 87.0762 34.2786 87.1152 34.222 87.1679C34.1673 87.2186 34.1186 87.282 34.0756 87.3581C34.0327 87.4323 33.9927 87.5171 33.9556 87.6128V89.4742H33.3849V86.5005H33.7127C33.7751 86.5005 33.8171 86.5122 33.8385 86.5357C33.862 86.5571 33.8786 86.5961 33.8883 86.6527L33.9234 87.0713ZM36.4593 89.5211C36.2193 89.5211 36.034 89.4538 35.9032 89.3191C35.7744 89.1845 35.7101 88.9923 35.7101 88.7425V86.963H35.3647C35.3315 86.963 35.3032 86.9532 35.2798 86.9337C35.2583 86.9123 35.2476 86.881 35.2476 86.8401V86.6088L35.7305 86.5415L35.8593 85.6547C35.8671 85.6215 35.8818 85.5961 35.9032 85.5786C35.9266 85.5591 35.9559 85.5493 35.991 85.5493H36.2808V86.5474H37.1237V86.963H36.2808V88.7045C36.2808 88.8216 36.3091 88.9094 36.3657 88.9679C36.4242 89.0245 36.4984 89.0528 36.5881 89.0528C36.6408 89.0528 36.6857 89.0459 36.7228 89.0323C36.7618 89.0186 36.795 89.004 36.8223 88.9884C36.8496 88.9708 36.873 88.9552 36.8925 88.9416C36.912 88.9279 36.9296 88.9211 36.9452 88.9211C36.9647 88.9211 36.9793 88.9259 36.9891 88.9357C37.0008 88.9435 37.0125 88.9572 37.0242 88.9767L37.194 89.2518C37.1003 89.3377 36.9891 89.404 36.8603 89.4508C36.7315 89.4977 36.5979 89.5211 36.4593 89.5211ZM39.8734 85.7776V87.1854H41.5593V87.6918H39.8734V89.4742H39.2471V85.2713H41.852V85.7776H39.8734ZM42.9738 85.1542V89.4742H42.4002V85.1542H42.9738ZM45.0563 86.4537C45.2749 86.4537 45.472 86.4898 45.6476 86.562C45.8251 86.6322 45.9754 86.7347 46.0983 86.8693C46.2232 87.002 46.3188 87.163 46.3851 87.3523C46.4515 87.5396 46.4847 87.7503 46.4847 87.9845C46.4847 88.2186 46.4515 88.4303 46.3851 88.6196C46.3188 88.8089 46.2232 88.9698 46.0983 89.1025C45.9754 89.2352 45.8251 89.3377 45.6476 89.4099C45.472 89.4801 45.2749 89.5152 45.0563 89.5152C44.8359 89.5152 44.6368 89.4801 44.4593 89.4099C44.2837 89.3377 44.1334 89.2352 44.0085 89.1025C43.8836 88.9698 43.7871 88.8089 43.7188 88.6196C43.6524 88.4303 43.6193 88.2186 43.6193 87.9845C43.6193 87.7503 43.6524 87.5396 43.7188 87.3523C43.7871 87.163 43.8836 87.002 44.0085 86.8693C44.1334 86.7347 44.2837 86.6322 44.4593 86.562C44.6368 86.4898 44.8359 86.4537 45.0563 86.4537ZM45.0563 89.0703C45.3373 89.0703 45.5471 88.9757 45.6856 88.7864C45.8242 88.5972 45.8934 88.3308 45.8934 87.9874C45.8934 87.644 45.8242 87.3776 45.6856 87.1884C45.5471 86.9971 45.3373 86.9015 45.0563 86.9015C44.7715 86.9015 44.5588 86.9971 44.4183 87.1884C44.2797 87.3776 44.2105 87.644 44.2105 87.9874C44.2105 88.3308 44.2797 88.5972 44.4183 88.7864C44.5588 88.9757 44.7715 89.0703 45.0563 89.0703ZM47.6603 87.0713C47.7559 86.8762 47.871 86.723 48.0057 86.6118C48.1403 86.5005 48.3023 86.4449 48.4915 86.4449C48.5559 86.4449 48.6164 86.4527 48.673 86.4683C48.7315 86.482 48.7823 86.5035 48.8252 86.5327L48.7872 86.963C48.7735 87.0157 48.7413 87.042 48.6906 87.042C48.6632 87.042 48.6223 87.0371 48.5676 87.0274C48.513 87.0157 48.4545 87.0098 48.392 87.0098C48.3003 87.0098 48.2193 87.0235 48.1491 87.0508C48.0788 87.0762 48.0154 87.1152 47.9588 87.1679C47.9042 87.2186 47.8554 87.282 47.8125 87.3581C47.7696 87.4323 47.7296 87.5171 47.6925 87.6128V89.4742H47.1218V86.5005H47.4496C47.512 86.5005 47.554 86.5122 47.5754 86.5357C47.5988 86.5571 47.6154 86.5961 47.6252 86.6527L47.6603 87.0713ZM51.1266 87.6567C51.1266 87.5435 51.1101 87.4391 51.0769 87.3435C51.0457 87.2479 50.9988 87.1649 50.9364 87.0947C50.874 87.0244 50.7979 86.9698 50.7081 86.9308C50.6183 86.8918 50.5149 86.8723 50.3978 86.8723C50.1578 86.8723 49.9686 86.9415 49.83 87.0801C49.6934 87.2186 49.6066 87.4108 49.5695 87.6567H51.1266ZM51.5979 89.0498C51.5276 89.1318 51.4466 89.203 51.3549 89.2635C51.2632 89.322 51.1657 89.3699 51.0622 89.4069C50.9588 89.444 50.8515 89.4713 50.7403 89.4889C50.631 89.5064 50.5227 89.5152 50.4154 89.5152C50.2105 89.5152 50.0203 89.4811 49.8447 89.4128C49.671 89.3425 49.5198 89.2411 49.391 89.1084C49.2642 88.9737 49.1647 88.8079 49.0925 88.6108C49.0222 88.4118 48.9871 88.1835 48.9871 87.9259C48.9871 87.7191 49.0193 87.5269 49.0837 87.3493C49.1481 87.1698 49.2398 87.0137 49.3588 86.881C49.4798 86.7483 49.6271 86.644 49.8008 86.5679C49.9744 86.4918 50.1695 86.4537 50.3861 86.4537C50.5676 86.4537 50.7344 86.484 50.8866 86.5444C51.0408 86.603 51.1735 86.6888 51.2847 86.802C51.3959 86.9152 51.4827 87.0547 51.5452 87.2205C51.6096 87.3864 51.6418 87.5757 51.6418 87.7884C51.6418 87.8762 51.632 87.9357 51.6125 87.9669C51.593 87.9962 51.5569 88.0108 51.5042 88.0108H49.5549C49.5608 88.1884 49.5861 88.3435 49.631 88.4762C49.6759 88.6069 49.7373 88.7162 49.8154 88.804C49.8954 88.8918 49.99 88.9572 50.0993 89.0001C50.2086 89.043 50.3305 89.0645 50.4652 89.0645C50.592 89.0645 50.7013 89.0498 50.793 89.0206C50.8866 88.9913 50.9666 88.9601 51.033 88.9269C51.1013 88.8918 51.1579 88.8596 51.2027 88.8303C51.2496 88.8011 51.2905 88.7864 51.3257 88.7864C51.3725 88.7864 51.4086 88.804 51.434 88.8391L51.5979 89.0498ZM54.0084 87.0127C53.9928 87.0381 53.9762 87.0566 53.9587 87.0684C53.9411 87.0781 53.9187 87.083 53.8913 87.083C53.8601 87.083 53.825 87.0723 53.786 87.0508C53.7489 87.0293 53.703 87.0059 53.6484 86.9805C53.5957 86.9552 53.5333 86.9318 53.4611 86.9103C53.3889 86.8888 53.303 86.8781 53.2035 86.8781C53.1216 86.8781 53.0465 86.8888 52.9782 86.9103C52.9118 86.9298 52.8552 86.9581 52.8084 86.9952C52.7616 87.0303 52.7255 87.0732 52.7001 87.124C52.6747 87.1727 52.6621 87.2254 52.6621 87.282C52.6621 87.3562 52.6835 87.4176 52.7264 87.4664C52.7713 87.5152 52.8289 87.5571 52.8991 87.5923C52.9713 87.6274 53.0523 87.6596 53.1421 87.6888C53.2338 87.7162 53.3265 87.7454 53.4201 87.7767C53.5157 87.8079 53.6084 87.844 53.6982 87.885C53.7899 87.924 53.8709 87.9737 53.9411 88.0342C54.0133 88.0928 54.0709 88.164 54.1138 88.2479C54.1587 88.3318 54.1811 88.4342 54.1811 88.5552C54.1811 88.6937 54.1557 88.8225 54.105 88.9416C54.0562 89.0586 53.9831 89.1601 53.8855 89.2459C53.7899 89.3318 53.6709 89.3991 53.5284 89.4479C53.386 89.4967 53.223 89.5211 53.0396 89.5211C52.8347 89.5211 52.6455 89.4869 52.4718 89.4186C52.2981 89.3503 52.1528 89.2635 52.0357 89.1581L52.1703 88.9386C52.186 88.9113 52.2055 88.8908 52.2289 88.8772C52.2523 88.8616 52.2835 88.8537 52.3225 88.8537C52.3596 88.8537 52.3977 88.8674 52.4367 88.8947C52.4757 88.922 52.5225 88.9523 52.5772 88.9855C52.6318 89.0167 52.6982 89.0459 52.7762 89.0733C52.8543 89.0986 52.9518 89.1113 53.0689 89.1113C53.1665 89.1113 53.2513 89.0996 53.3235 89.0762C53.3957 89.0508 53.4552 89.0177 53.5021 88.9767C53.5509 88.9337 53.587 88.885 53.6104 88.8303C53.6338 88.7757 53.6455 88.7181 53.6455 88.6576C53.6455 88.5796 53.623 88.5152 53.5782 88.4645C53.5352 88.4118 53.4777 88.3669 53.4055 88.3298C53.3352 88.2928 53.2543 88.2606 53.1626 88.2332C53.0708 88.2059 52.9772 88.1767 52.8816 88.1454C52.786 88.1142 52.6923 88.0781 52.6006 88.0371C52.5089 87.9962 52.4269 87.9445 52.3547 87.882C52.2845 87.8196 52.2269 87.7435 52.1821 87.6537C52.1391 87.564 52.1177 87.4547 52.1177 87.3259C52.1177 87.2108 52.1411 87.1005 52.1879 86.9952C52.2367 86.8898 52.306 86.7971 52.3957 86.7171C52.4874 86.6371 52.5996 86.5737 52.7323 86.5269C52.8669 86.4781 53.0201 86.4537 53.1918 86.4537C53.3889 86.4537 53.5665 86.4849 53.7245 86.5474C53.8845 86.6098 54.0211 86.6957 54.1343 86.8049L54.0084 87.0127Z" fill="white"/>
<path d="M73.4146 79.536L73.4129 79.824H71.931V77.4329H73.4129V77.721H72.2873V78.4786H73.1931V78.7567H72.2873V79.536H73.4146ZM75.2051 79.824H74.892C74.8665 79.824 74.846 79.8174 74.8304 79.8041C74.816 79.7896 74.8043 79.7746 74.7955 79.7591L74.3875 79.1147C74.382 79.1313 74.3764 79.1474 74.3709 79.163C74.3653 79.1785 74.3581 79.193 74.3492 79.2063L73.9746 79.7591C73.9635 79.7746 73.9507 79.7896 73.9363 79.8041C73.9218 79.8174 73.903 79.824 73.8796 79.824H73.5899L74.1794 78.9532L73.6132 78.1323H73.9263C73.9518 78.1323 73.9701 78.1362 73.9812 78.1439C73.9934 78.1517 74.004 78.1634 74.0129 78.1789L74.4142 78.7967C74.4197 78.78 74.4258 78.7639 74.4325 78.7484C74.4391 78.7317 74.448 78.7145 74.4591 78.6967L74.8038 78.1856C74.8238 78.15 74.8504 78.1323 74.8837 78.1323H75.1818L74.6156 78.9382L75.2051 79.824ZM75.7892 79.4078C75.8425 79.4777 75.8997 79.5265 75.9607 79.5543C76.0229 79.582 76.0923 79.5959 76.1689 79.5959C76.3176 79.5959 76.4325 79.5426 76.5136 79.4361C76.5957 79.3284 76.6368 79.1719 76.6368 78.9665C76.6368 78.8588 76.6273 78.7672 76.6085 78.6918C76.5907 78.6152 76.5641 78.553 76.5285 78.5053C76.4941 78.4564 76.4514 78.4209 76.4003 78.3987C76.3493 78.3754 76.2915 78.3637 76.2272 78.3637C76.1328 78.3637 76.0507 78.3848 75.9807 78.427C75.9119 78.4692 75.8481 78.5291 75.7892 78.6068V79.4078ZM75.7726 78.3854C75.8081 78.3432 75.8458 78.3049 75.8858 78.2705C75.9269 78.235 75.9707 78.205 76.0174 78.1806C76.064 78.155 76.1134 78.1356 76.1655 78.1223C76.2188 78.1078 76.2754 78.1006 76.3354 78.1006C76.432 78.1006 76.5191 78.1195 76.5968 78.1572C76.6756 78.195 76.7428 78.2505 76.7983 78.3238C76.8538 78.397 76.8965 78.4875 76.9265 78.5952C76.9576 78.7029 76.9731 78.8266 76.9731 78.9665C76.9731 79.0919 76.9559 79.2085 76.9215 79.3162C76.8882 79.4227 76.8399 79.5154 76.7766 79.5942C76.7145 79.6731 76.6379 79.7352 76.5469 79.7807C76.4569 79.8251 76.3554 79.8473 76.2421 79.8473C76.1411 79.8473 76.0545 79.8307 75.9824 79.7974C75.9102 79.7641 75.8458 79.7175 75.7892 79.6575V80.3918H75.4645V78.1323H75.6594C75.7049 78.1323 75.7332 78.1539 75.7443 78.1972L75.7726 78.3854ZM77.6775 78.1323V79.824H77.3528V78.1323H77.6775ZM77.7391 77.6094C77.7391 77.6394 77.733 77.6683 77.7208 77.696C77.7086 77.7226 77.6919 77.7465 77.6708 77.7676C77.6508 77.7876 77.627 77.8037 77.5992 77.8159C77.5715 77.827 77.5426 77.8325 77.5126 77.8325C77.4827 77.8325 77.4544 77.827 77.4277 77.8159C77.4011 77.8037 77.3772 77.7876 77.3561 77.7676C77.3361 77.7465 77.32 77.7226 77.3078 77.696C77.2967 77.6683 77.2912 77.6394 77.2912 77.6094C77.2912 77.5783 77.2967 77.5495 77.3078 77.5228C77.32 77.4951 77.3361 77.4712 77.3561 77.4512C77.3772 77.4301 77.4011 77.414 77.4277 77.4029C77.4544 77.3907 77.4827 77.3846 77.5126 77.3846C77.5426 77.3846 77.5715 77.3907 77.5992 77.4029C77.627 77.414 77.6508 77.4301 77.6708 77.4512C77.6919 77.4712 77.7086 77.4951 77.7208 77.5228C77.733 77.5495 77.7391 77.5783 77.7391 77.6094ZM78.454 78.457C78.5084 78.346 78.5739 78.2588 78.6505 78.1955C78.7271 78.1323 78.8192 78.1006 78.9269 78.1006C78.9635 78.1006 78.9979 78.1051 79.0301 78.114C79.0634 78.1217 79.0923 78.1339 79.1167 78.1506L79.095 78.3954C79.0873 78.4253 79.069 78.4403 79.0401 78.4403C79.0246 78.4403 79.0012 78.4375 78.9702 78.432C78.9391 78.4253 78.9058 78.422 78.8703 78.422C78.8181 78.422 78.772 78.4298 78.732 78.4453C78.6921 78.4597 78.656 78.4819 78.6238 78.5119C78.5927 78.5408 78.565 78.5769 78.5406 78.6202C78.5161 78.6623 78.4934 78.7106 78.4723 78.765V79.824H78.1476V78.1323H78.3341C78.3696 78.1323 78.3935 78.1389 78.4057 78.1523C78.419 78.1645 78.4284 78.1867 78.434 78.2189L78.454 78.457ZM80.426 78.79C80.426 78.7256 80.4166 78.6662 80.3977 78.6118C80.3799 78.5574 80.3533 78.5103 80.3178 78.4703C80.2822 78.4303 80.239 78.3992 80.1879 78.377C80.1368 78.3548 80.078 78.3437 80.0114 78.3437C79.8748 78.3437 79.7672 78.3831 79.6884 78.462C79.6106 78.5408 79.5612 78.6501 79.5402 78.79H80.426ZM80.6941 79.5826C80.6541 79.6292 80.6081 79.6697 80.5559 79.7041C80.5037 79.7374 80.4482 79.7646 80.3894 79.7857C80.3305 79.8068 80.2695 79.8224 80.2062 79.8324C80.144 79.8424 80.0824 79.8473 80.0214 79.8473C79.9048 79.8473 79.7966 79.8279 79.6967 79.7891C79.5979 79.7491 79.5118 79.6914 79.4386 79.6159C79.3664 79.5393 79.3098 79.4449 79.2687 79.3328C79.2288 79.2196 79.2088 79.0897 79.2088 78.9432C79.2088 78.8255 79.2271 78.7162 79.2637 78.6152C79.3004 78.513 79.3526 78.4242 79.4203 78.3487C79.4891 78.2733 79.5729 78.2139 79.6717 78.1706C79.7705 78.1273 79.8815 78.1056 80.0047 78.1056C80.108 78.1056 80.2029 78.1228 80.2895 78.1572C80.3772 78.1905 80.4526 78.2394 80.5159 78.3038C80.5792 78.3682 80.6286 78.4475 80.6641 78.5419C80.7007 78.6362 80.7191 78.7439 80.7191 78.8649C80.7191 78.9149 80.7135 78.9487 80.7024 78.9665C80.6913 78.9831 80.6708 78.9915 80.6408 78.9915H79.5318C79.5352 79.0925 79.5496 79.1807 79.5751 79.2562C79.6007 79.3306 79.6356 79.3928 79.68 79.4427C79.7255 79.4927 79.7794 79.5299 79.8415 79.5543C79.9037 79.5787 79.9731 79.5909 80.0497 79.5909C80.1218 79.5909 80.184 79.5826 80.2362 79.5659C80.2895 79.5493 80.335 79.5315 80.3727 79.5127C80.4116 79.4927 80.4438 79.4744 80.4693 79.4577C80.4959 79.4411 80.5192 79.4327 80.5392 79.4327C80.5659 79.4327 80.5864 79.4427 80.6008 79.4627L80.6941 79.5826ZM83.001 78.5419C82.9478 78.472 82.89 78.4231 82.8279 78.3954C82.7668 78.3676 82.698 78.3537 82.6214 78.3537C82.4726 78.3537 82.3572 78.4076 82.275 78.5152C82.194 78.6218 82.1535 78.7778 82.1535 78.9831C82.1535 79.0908 82.1624 79.183 82.1801 79.2596C82.199 79.335 82.2256 79.3972 82.2601 79.4461C82.2956 79.4938 82.3389 79.5293 82.3899 79.5526C82.441 79.5748 82.4987 79.5859 82.5631 79.5859C82.6575 79.5859 82.7391 79.5648 82.8079 79.5226C82.8767 79.4805 82.9411 79.4211 83.001 79.3445V78.5419ZM83.3274 77.3663V79.824H83.1309C83.0854 79.824 83.0571 79.8024 83.046 79.7591L83.0177 79.5643C82.9455 79.6498 82.8634 79.7186 82.7712 79.7708C82.6802 79.8218 82.5748 79.8473 82.4549 79.8473C82.3583 79.8473 82.2706 79.8285 82.1918 79.7907C82.1141 79.753 82.0475 79.698 81.992 79.6259C81.9365 79.5526 81.8937 79.4621 81.8638 79.3545C81.8338 79.2468 81.8188 79.123 81.8188 78.9831C81.8188 78.8577 81.8354 78.7412 81.8688 78.6335C81.9021 78.5258 81.9503 78.4325 82.0136 78.3537C82.0769 78.2749 82.1535 78.2133 82.2434 78.1689C82.3333 78.1234 82.4349 78.1006 82.5481 78.1006C82.6502 78.1006 82.7368 78.1173 82.8079 78.1506C82.88 78.1839 82.9444 78.2311 83.001 78.2921V77.3663H83.3274ZM84.6895 79.0731C84.5574 79.0775 84.4453 79.0881 84.3532 79.1047C84.2611 79.1202 84.1861 79.1413 84.1284 79.168C84.0707 79.1946 84.029 79.2263 84.0035 79.2629C83.978 79.2984 83.9652 79.3384 83.9652 79.3828C83.9652 79.425 83.9719 79.4616 83.9852 79.4927C83.9996 79.5226 84.0185 79.5476 84.0418 79.5676C84.0662 79.5865 84.0945 79.6004 84.1267 79.6092C84.1589 79.6181 84.1939 79.6226 84.2316 79.6226C84.2816 79.6226 84.3271 79.6176 84.3682 79.6076C84.4104 79.5976 84.4498 79.5837 84.4864 79.5659C84.523 79.5471 84.558 79.5243 84.5913 79.4977C84.6246 79.471 84.6574 79.4405 84.6895 79.4061V79.0731ZM83.7371 78.3687C83.8315 78.2788 83.9336 78.2116 84.0435 78.1672C84.1545 78.1228 84.276 78.1006 84.4081 78.1006C84.5047 78.1006 84.5902 78.1167 84.6646 78.1489C84.7389 78.18 84.8017 78.2239 84.8527 78.2805C84.9038 78.3371 84.9421 78.4048 84.9676 78.4836C84.9943 78.5624 85.0076 78.6496 85.0076 78.745V79.824H84.8627C84.8305 79.824 84.8061 79.819 84.7895 79.809C84.7728 79.7979 84.7595 79.778 84.7495 79.7491L84.7145 79.6009C84.6712 79.6409 84.6285 79.6764 84.5863 79.7075C84.5441 79.7374 84.4997 79.7635 84.4531 79.7857C84.4076 79.8068 84.3587 79.8229 84.3066 79.834C84.2544 79.8451 84.1967 79.8507 84.1334 79.8507C84.0668 79.8507 84.0041 79.8418 83.9452 79.824C83.8875 79.8052 83.837 79.7769 83.7937 79.7391C83.7504 79.7014 83.716 79.6542 83.6905 79.5976C83.6661 79.541 83.6538 79.4749 83.6538 79.3994C83.6538 79.3328 83.6716 79.269 83.7071 79.2079C83.7438 79.1458 83.8026 79.0903 83.8836 79.0414C83.9658 78.9926 84.0723 78.9526 84.2033 78.9215C84.3354 78.8905 84.4975 78.8727 84.6895 78.8683V78.745C84.6895 78.6174 84.6624 78.5219 84.608 78.4586C84.5536 78.3954 84.4736 78.3637 84.3682 78.3637C84.2971 78.3637 84.2372 78.3726 84.1883 78.3904C84.1406 78.4081 84.099 78.4281 84.0635 78.4503C84.029 78.4714 83.9985 78.4908 83.9719 78.5086C83.9463 78.5263 83.9197 78.5352 83.892 78.5352C83.8698 78.5352 83.8503 78.5291 83.8337 78.5169C83.8181 78.5047 83.8054 78.4903 83.7954 78.4736L83.7371 78.3687ZM85.949 79.8507C85.8125 79.8507 85.707 79.8124 85.6326 79.7358C85.5594 79.6592 85.5227 79.5498 85.5227 79.4078V78.3954H85.3262C85.3074 78.3954 85.2913 78.3898 85.278 78.3787C85.2658 78.3665 85.2596 78.3487 85.2596 78.3254V78.1939L85.5344 78.1556L85.6077 77.651C85.6121 77.6322 85.6204 77.6177 85.6326 77.6078C85.646 77.5967 85.6626 77.5911 85.6826 77.5911H85.8474V78.1589H86.327V78.3954H85.8474V79.3861C85.8474 79.4527 85.8635 79.5027 85.8957 79.536C85.929 79.5682 85.9712 79.5843 86.0223 79.5843C86.0522 79.5843 86.0778 79.5804 86.0989 79.5726C86.1211 79.5648 86.1399 79.5565 86.1555 79.5476C86.171 79.5376 86.1843 79.5288 86.1954 79.521C86.2065 79.5132 86.2165 79.5093 86.2254 79.5093C86.2365 79.5093 86.2448 79.5121 86.2504 79.5177C86.2571 79.5221 86.2637 79.5299 86.2704 79.541L86.367 79.6975C86.3137 79.7463 86.2504 79.7841 86.1771 79.8107C86.1039 79.8374 86.0278 79.8507 85.949 79.8507ZM87.7369 78.79C87.7369 78.7256 87.7275 78.6662 87.7086 78.6118C87.6909 78.5574 87.6642 78.5103 87.6287 78.4703C87.5932 78.4303 87.5499 78.3992 87.4988 78.377C87.4478 78.3548 87.3889 78.3437 87.3223 78.3437C87.1858 78.3437 87.0781 78.3831 86.9993 78.462C86.9216 78.5408 86.8722 78.6501 86.8511 78.79H87.7369ZM88.005 79.5826C87.9651 79.6292 87.919 79.6697 87.8668 79.7041C87.8146 79.7374 87.7591 79.7646 87.7003 79.7857C87.6415 79.8068 87.5804 79.8224 87.5171 79.8324C87.455 79.8424 87.3934 79.8473 87.3323 79.8473C87.2157 79.8473 87.1075 79.8279 87.0076 79.7891C86.9088 79.7491 86.8228 79.6914 86.7495 79.6159C86.6774 79.5393 86.6207 79.4449 86.5797 79.3328C86.5397 79.2196 86.5197 79.0897 86.5197 78.9432C86.5197 78.8255 86.538 78.7162 86.5747 78.6152C86.6113 78.513 86.6635 78.4242 86.7312 78.3487C86.8 78.2733 86.8838 78.2139 86.9826 78.1706C87.0814 78.1273 87.1924 78.1056 87.3157 78.1056C87.4189 78.1056 87.5138 78.1228 87.6004 78.1572C87.6881 78.1905 87.7636 78.2394 87.8268 78.3038C87.8901 78.3682 87.9395 78.4475 87.975 78.5419C88.0117 78.6362 88.03 78.7439 88.03 78.8649C88.03 78.9149 88.0244 78.9487 88.0133 78.9665C88.0022 78.9831 87.9817 78.9915 87.9517 78.9915H86.8428C86.8461 79.0925 86.8605 79.1807 86.8861 79.2562C86.9116 79.3306 86.9466 79.3928 86.991 79.4427C87.0365 79.4927 87.0903 79.5299 87.1525 79.5543C87.2146 79.5787 87.284 79.5909 87.3606 79.5909C87.4328 79.5909 87.4949 79.5826 87.5471 79.5659C87.6004 79.5493 87.6459 79.5315 87.6836 79.5127C87.7225 79.4927 87.7547 79.4744 87.7802 79.4577C87.8069 79.4411 87.8302 79.4327 87.8502 79.4327C87.8768 79.4327 87.8973 79.4427 87.9118 79.4627L88.005 79.5826Z" fill="white"/>
<path d="M74.8616 87.3727C74.8616 87.7396 74.8216 88.0576 74.7416 88.3269C74.6636 88.5962 74.5553 88.8196 74.4168 88.9972C74.2802 89.1728 74.1182 89.3035 73.9309 89.3894C73.7455 89.4752 73.5455 89.5181 73.3309 89.5181C73.1163 89.5181 72.9153 89.4752 72.728 89.3894C72.5426 89.3035 72.3816 89.1728 72.245 88.9972C72.1084 88.8196 72.0011 88.5962 71.9231 88.3269C71.845 88.0576 71.806 87.7396 71.806 87.3727C71.806 87.0059 71.845 86.6879 71.9231 86.4186C72.0011 86.1474 72.1084 85.9239 72.245 85.7483C72.3816 85.5708 72.5426 85.4391 72.728 85.3532C72.9153 85.2673 73.1163 85.2244 73.3309 85.2244C73.5455 85.2244 73.7455 85.2673 73.9309 85.3532C74.1182 85.4391 74.2802 85.5708 74.4168 85.7483C74.5553 85.9239 74.6636 86.1474 74.7416 86.4186C74.8216 86.6879 74.8616 87.0059 74.8616 87.3727ZM74.2704 87.3727C74.2704 87.0566 74.2441 86.7923 74.1914 86.5796C74.1407 86.3669 74.0714 86.1961 73.9836 86.0674C73.8977 85.9366 73.7982 85.8439 73.685 85.7893C73.5719 85.7347 73.4538 85.7074 73.3309 85.7074C73.208 85.7074 73.0899 85.7347 72.9767 85.7893C72.8636 85.8439 72.7631 85.9366 72.6753 86.0674C72.5894 86.1961 72.5211 86.3669 72.4704 86.5796C72.4197 86.7923 72.3943 87.0566 72.3943 87.3727C72.3943 87.6888 72.4197 87.9532 72.4704 88.1659C72.5211 88.3786 72.5894 88.5494 72.6753 88.6781C72.7631 88.8069 72.8636 88.8986 72.9767 88.9533C73.0899 89.0079 73.208 89.0352 73.3309 89.0352C73.4538 89.0352 73.5719 89.0079 73.685 88.9533C73.7982 88.8986 73.8977 88.8069 73.9836 88.6781C74.0714 88.5494 74.1407 88.3786 74.1914 88.1659C74.2441 87.9532 74.2704 87.6888 74.2704 87.3727ZM76.7236 89.044C76.8582 89.044 76.9802 89.0225 77.0895 88.9796C77.1987 88.9347 77.2924 88.8742 77.3704 88.7981C77.4485 88.722 77.509 88.6313 77.5519 88.5259C77.5948 88.4206 77.6163 88.3064 77.6163 88.1835C77.6163 88.0489 77.5948 87.9289 77.5519 87.8235C77.5109 87.7162 77.4524 87.6254 77.3763 87.5513C77.3021 87.4771 77.2124 87.4206 77.107 87.3815C77.0016 87.3425 76.8846 87.323 76.7558 87.323C76.6212 87.323 76.5002 87.3464 76.3929 87.3932C76.2855 87.4381 76.1938 87.4996 76.1177 87.5776C76.0416 87.6537 75.9831 87.7435 75.9421 87.8469C75.9011 87.9503 75.8807 88.0586 75.8807 88.1718C75.8807 88.3006 75.8992 88.4186 75.9363 88.5259C75.9733 88.6333 76.028 88.725 76.1002 88.8011C76.1724 88.8772 76.2602 88.9367 76.3636 88.9796C76.469 89.0225 76.589 89.044 76.7236 89.044ZM76.4543 86.8342C76.4212 86.8771 76.388 86.9191 76.3548 86.9601C76.3236 86.9991 76.2933 87.0381 76.2641 87.0771C76.3577 87.0166 76.4612 86.9698 76.5743 86.9366C76.6894 86.9035 76.8134 86.8869 76.946 86.8869C77.1119 86.8869 77.2699 86.9142 77.4202 86.9688C77.5704 87.0235 77.7021 87.1035 77.8153 87.2088C77.9304 87.3142 78.0212 87.4449 78.0875 87.601C78.1539 87.7571 78.187 87.9367 78.187 88.1396C78.187 88.3328 78.1519 88.5142 78.0817 88.684C78.0114 88.8518 77.9119 88.9981 77.7831 89.123C77.6563 89.2459 77.5041 89.3435 77.3265 89.4157C77.149 89.486 76.9519 89.5211 76.7353 89.5211C76.5207 89.5211 76.3265 89.4869 76.1529 89.4186C75.9811 89.3503 75.8338 89.2538 75.7109 89.1289C75.5899 89.002 75.4963 88.8498 75.4299 88.6723C75.3636 88.4928 75.3304 88.2937 75.3304 88.0752C75.3304 87.8879 75.3704 87.6908 75.4504 87.484C75.5324 87.2752 75.6611 87.0527 75.8368 86.8166L76.8875 85.4088C76.9168 85.3698 76.9577 85.3376 77.0104 85.3122C77.0631 85.2849 77.1236 85.2713 77.1919 85.2713H77.7012L76.4543 86.8342ZM79.168 89.5211C79.1407 89.5952 79.0977 89.6499 79.0392 89.685C78.9807 89.7221 78.9202 89.7406 78.8577 89.7406H78.6177L80.3622 85.362C80.3895 85.2956 80.4285 85.2449 80.4792 85.2098C80.5319 85.1727 80.5924 85.1542 80.6607 85.1542H80.9036L79.168 89.5211ZM83.9773 88.9328C84.0397 88.9328 84.0885 88.9513 84.1236 88.9884C84.1588 89.0235 84.1763 89.0703 84.1763 89.1289V89.4742H81.3548V89.2781C81.3548 89.2391 81.3626 89.1981 81.3782 89.1552C81.3939 89.1103 81.4202 89.0703 81.4573 89.0352L82.7861 87.7035C82.8973 87.5923 82.9978 87.4849 83.0875 87.3815C83.1773 87.2781 83.2534 87.1757 83.3158 87.0742C83.3783 86.9708 83.4261 86.8654 83.4592 86.7581C83.4944 86.6508 83.5119 86.5376 83.5119 86.4186C83.5119 86.3015 83.4934 86.1991 83.4563 86.1113C83.4192 86.0215 83.3685 85.9474 83.3041 85.8888C83.2397 85.8303 83.1636 85.7864 83.0758 85.7571C82.988 85.7278 82.8934 85.7132 82.7919 85.7132C82.6905 85.7132 82.5968 85.7278 82.5109 85.7571C82.427 85.7864 82.3519 85.8274 82.2856 85.88C82.2192 85.9327 82.1636 85.9952 82.1187 86.0674C82.0739 86.1396 82.0417 86.2176 82.0222 86.3015C81.9948 86.3757 81.9597 86.4254 81.9168 86.4508C81.8758 86.4761 81.8153 86.482 81.7353 86.4683L81.4368 86.4157C81.4641 86.2205 81.5178 86.0488 81.5978 85.9005C81.6778 85.7522 81.7782 85.6283 81.8992 85.5288C82.0202 85.4274 82.1587 85.3513 82.3148 85.3005C82.4729 85.2498 82.6427 85.2244 82.8241 85.2244C83.0075 85.2244 83.1763 85.2517 83.3305 85.3064C83.4866 85.3591 83.6212 85.4361 83.7344 85.5376C83.8475 85.6391 83.9363 85.763 84.0007 85.9093C84.0651 86.0537 84.0973 86.2176 84.0973 86.401C84.0973 86.5571 84.0739 86.7025 84.0271 86.8371C83.9822 86.9698 83.9197 87.0966 83.8397 87.2176C83.7617 87.3386 83.67 87.4567 83.5646 87.5718C83.4612 87.6849 83.351 87.8001 83.2339 87.9171L82.1685 89.0059C82.2505 88.9845 82.3324 88.9669 82.4144 88.9533C82.4983 88.9396 82.5773 88.9328 82.6514 88.9328H83.9773ZM87.3729 88.9328C87.4354 88.9328 87.4842 88.9513 87.5193 88.9884C87.5544 89.0235 87.572 89.0703 87.572 89.1289V89.4742H84.7505V89.2781C84.7505 89.2391 84.7583 89.1981 84.7739 89.1552C84.7895 89.1103 84.8158 89.0703 84.8529 89.0352L86.1817 87.7035C86.2929 87.5923 86.3934 87.4849 86.4832 87.3815C86.5729 87.2781 86.649 87.1757 86.7115 87.0742C86.7739 86.9708 86.8217 86.8654 86.8549 86.7581C86.89 86.6508 86.9076 86.5376 86.9076 86.4186C86.9076 86.3015 86.889 86.1991 86.852 86.1113C86.8149 86.0215 86.7641 85.9474 86.6998 85.8888C86.6354 85.8303 86.5593 85.7864 86.4715 85.7571C86.3837 85.7278 86.289 85.7132 86.1876 85.7132C86.0861 85.7132 85.9924 85.7278 85.9066 85.7571C85.8227 85.7864 85.7475 85.8274 85.6812 85.88C85.6149 85.9327 85.5593 85.9952 85.5144 86.0674C85.4695 86.1396 85.4373 86.2176 85.4178 86.3015C85.3905 86.3757 85.3553 86.4254 85.3124 86.4508C85.2714 86.4761 85.211 86.482 85.131 86.4683L84.8324 86.4157C84.8597 86.2205 84.9134 86.0488 84.9934 85.9005C85.0734 85.7522 85.1739 85.6283 85.2949 85.5288C85.4158 85.4274 85.5544 85.3513 85.7105 85.3005C85.8685 85.2498 86.0383 85.2244 86.2197 85.2244C86.4032 85.2244 86.572 85.2517 86.7261 85.3064C86.8822 85.3591 87.0168 85.4361 87.13 85.5376C87.2432 85.6391 87.332 85.763 87.3964 85.9093C87.4607 86.0537 87.4929 86.2176 87.4929 86.401C87.4929 86.5571 87.4695 86.7025 87.4227 86.8371C87.3778 86.9698 87.3154 87.0966 87.2354 87.2176C87.1573 87.3386 87.0656 87.4567 86.9602 87.5718C86.8568 87.6849 86.7466 87.8001 86.6295 87.9171L85.5641 89.0059C85.6461 88.9845 85.728 88.9669 85.81 88.9533C85.8939 88.9396 85.9729 88.9328 86.0471 88.9328H87.3729Z" fill="white"/>
</g>
<defs>
<filter id="filter0_ddd_0_4494" x="0.394076" y="0.807791" width="170.937" height="117.928" filterUnits="userSpaceOnUse" color-interpolation-filters="sRGB">
<feFlood flood-opacity="0" result="BackgroundImageFix"/>
<feColorMatrix in="SourceAlpha" type="matrix" values="0 0 0 0 0 0 0 0 0 0 0 0 0 0 0 0 0 0 127 0" result="hardAlpha"/>
<feOffset/>
<feGaussianBlur stdDeviation="0.231984"/>
<feColorMatrix type="matrix" values="0 0 0 0 0 0 0 0 0 0 0 0 0 0 0 0 0 0 0.04 0"/>
<feBlend mode="normal" in2="BackgroundImageFix" result="effect1_dropShadow_0_4494"/>
<feColorMatrix in="SourceAlpha" type="matrix" values="0 0 0 0 0 0 0 0 0 0 0 0 0 0 0 0 0 0 127 0" result="hardAlpha"/>
<feOffset dy="0.927935"/>
<feGaussianBlur stdDeviation="1.3919"/>
<feColorMatrix type="matrix" values="0 0 0 0 0 0 0 0 0 0 0 0 0 0 0 0 0 0 0.04 0"/>
<feBlend mode="normal" in2="effect1_dropShadow_0_4494" result="effect2_dropShadow_0_4494"/>
<feColorMatrix in="SourceAlpha" type="matrix" values="0 0 0 0 0 0 0 0 0 0 0 0 0 0 0 0 0 0 127 0" result="hardAlpha"/>
<feOffset dy="7.42348"/>
<feGaussianBlur stdDeviation="5.56761"/>
<feColorMatrix type="matrix" values="0 0 0 0 0 0 0 0 0 0 0 0 0 0 0 0 0 0 0.06 0"/>
<feBlend mode="normal" in2="effect2_dropShadow_0_4494" result="effect3_dropShadow_0_4494"/>
<feBlend mode="normal" in="SourceGraphic" in2="effect3_dropShadow_0_4494" result="shape"/>
</filter>
<linearGradient id="paint0_linear_0_4494" x1="85.8628" y1="4.51953" x2="85.8628" y2="100.177" gradientUnits="userSpaceOnUse">
<stop stop-color="#ED5846"/>
<stop offset="1" stop-color="#ED5846"/>
</linearGradient>
<linearGradient id="paint1_linear_0_4494" x1="85.8628" y1="4.51953" x2="85.8628" y2="100.177" gradientUnits="userSpaceOnUse">
<stop stop-color="#197BBD"/>
<stop offset="1" stop-color="#3391D0"/>
</linearGradient>
</defs>
</svg>
